<svg xmlns="http://www.w3.org/2000/svg" xmlns:xlink="http://www.w3.org/1999/xlink" width="346.347" height="224.175" viewBox="0 0 346.347 224.175"><defs><style>.a{fill:url(#a);}.b{fill:url(#d);}.c{clip-path:url(#g);}.d{fill:url(#h);}.e{fill:url(#k);}.f{fill:url(#n);}.g{fill:#3ba9fe;}.h{fill:none;stroke:#fff;stroke-linecap:round;stroke-width:3px;}.i{filter:url(#o);}.j{filter:url(#l);}.k{filter:url(#i);}.l{filter:url(#e);}.m{filter:url(#b);}</style><linearGradient id="a" x1="-0.291" y1="-0.12" x2="1.636" y2="1.453" gradientUnits="objectBoundingBox"><stop offset="0" stop-color="#00dbde"/><stop offset="1" stop-color="#fc00ff"/></linearGradient><filter id="b" x="24" y="-15.5" width="458.847" height="293.175" filterUnits="userSpaceOnUse"><feOffset dx="102" dy="19" input="SourceAlpha"/><feGaussianBlur stdDeviation="19.5" result="c"/><feFlood flood-opacity="0.431"/><feComposite operator="in" in2="c"/><feComposite in="SourceGraphic"/></filter><linearGradient id="d" x1="-0.196" y1="-0.472" x2="1.464" y2="1.584" gradientUnits="objectBoundingBox"><stop offset="0" stop-color="#fffbfb"/><stop offset="1" stop-color="#fffbfb"/></linearGradient><filter id="e" x="0" y="0" width="346.347" height="224.175" filterUnits="userSpaceOnUse"><feOffset input="SourceAlpha"/><feGaussianBlur stdDeviation="8" result="f"/><feFlood flood-opacity="0.251"/><feComposite operator="in" in2="f"/><feComposite in="SourceGraphic"/></filter><clipPath id="g"><g class="m" transform="matrix(1, 0, 0, 1, 0, 0)"><rect class="a" width="298.347" height="176.175" rx="13"/></g></clipPath><linearGradient id="h" x1="1.451" y1="-0.186" x2="-0.59" y2="1.238" gradientUnits="objectBoundingBox"><stop offset="0" stop-color="#fffbfb"/><stop offset="0.925" stop-color="#fffbfb"/><stop offset="1" stop-color="#00dbde"/></linearGradient><filter id="i" x="-59.153" y="-146.966" width="342.124" height="502.41" filterUnits="userSpaceOnUse"><feOffset input="SourceAlpha"/><feGaussianBlur stdDeviation="25.5" result="j"/><feFlood flood-opacity="0.114"/><feComposite operator="in" in2="j"/><feComposite in="SourceGraphic"/></filter><linearGradient id="k" x1="1.803" y1="0.016" x2="0" y2="1.15" xlink:href="#d"/><filter id="l" x="48.467" y="-131.813" width="422.69" height="476.978" filterUnits="userSpaceOnUse"><feOffset dy="3" input="SourceAlpha"/><feGaussianBlur stdDeviation="25" result="m"/><feFlood flood-opacity="0.071"/><feComposite operator="in" in2="m"/><feComposite in="SourceGraphic"/></filter><linearGradient id="n" x1="1.242" y1="-0.177" x2="-0.125" y2="0.895" xlink:href="#d"/><filter id="o" x="-126.577" y="-152.717" width="410.29" height="485.9" filterUnits="userSpaceOnUse"><feOffset dy="6" input="SourceAlpha"/><feGaussianBlur stdDeviation="21" result="p"/><feFlood flood-opacity="0.18"/><feComposite operator="in" in2="p"/><feComposite in="SourceGraphic"/></filter></defs><g transform="translate(-15 -97)"><g transform="translate(-1536 -2957)"><g class="l" transform="matrix(1, 0, 0, 1, 1551, 3054)"><rect class="b" width="298.347" height="176.175" rx="13" transform="matrix(1, 0, 0, 1, 24, 24)"/></g><g class="c" transform="matrix(1, 0, 0, 1, 1575, 3078)"><g transform="translate(-87.577 -119.717)"><g class="k" transform="matrix(1, 0, 0, 1, 63.58, 95.72)"><path class="d" d="M0,283.624,146.384,0l42.741,349.41Z" transform="matrix(1, 0, 0, 1, 17.35, -70.47)"/></g><g class="j" transform="matrix(1, 0, 0, 1, 63.58, 95.72)"><path class="e" d="M69.882,0,0,326.978,272.69,85.685Z" transform="matrix(1, 0, 0, 1, 123.47, -59.81)"/></g><g class="i" transform="matrix(1, 0, 0, 1, 63.58, 95.72)"><path class="f" d="M90.872,0,0,324.644,231.433,35.416Z" transform="translate(-63.58 -55.53) rotate(-10)"/></g></g></g></g><g transform="translate(-369.188 11.01) rotate(-45)"><circle class="g" cx="28.991" cy="28.991" r="28.991" transform="translate(225 505)"/><g transform="translate(253.991 512.906) rotate(45)"><line class="h" y2="29.819" transform="translate(14.91)"/><line class="h" y2="29.819" transform="translate(29.819 14.91) rotate(90)"/></g></g></g></svg>