<svg xmlns="http://www.w3.org/2000/svg" width="27.552" height="24" viewBox="0 0 27.552 24"><defs><style>.a{fill:#fff;}</style></defs><path class="a" d="M20.233,33a6.9,6.9,0,0,0-5.725,3.136,10.49,10.49,0,0,0-.732,1.186,10.49,10.49,0,0,0-.732-1.186A6.9,6.9,0,0,0,7.318,33C3.1,33,0,36.511,0,40.817c0,4.8,3.9,8.083,9.8,13.053,1.1.926,2.236,1.883,3.446,2.932a.807.807,0,0,0,1.057,0c1.21-1.049,2.347-2.007,3.446-2.932,5.9-4.971,9.8-8.255,9.8-13.053C27.552,36.513,24.453,33,20.233,33ZM16.711,52.636c-.943.794-1.913,1.611-2.935,2.491-1.023-.88-1.993-1.7-2.935-2.491C7.668,49.964,5.111,47.81,3.5,45.7H7.318a.807.807,0,0,0,.722-.446l.892-1.785,2.507,5.013a.807.807,0,0,0,1.444,0l.892-1.785.892,1.785a.807.807,0,0,0,1.444,0l2.507-5.013.892,1.785a.8.8,0,0,0,.722.441h3.818A50.654,50.654,0,0,1,16.711,52.636Zm8.382-8.55H20.732L19.341,41.3a.807.807,0,0,0-1.444,0L15.39,46.316,14.5,44.531a.807.807,0,0,0-1.444,0l-.892,1.785L9.655,41.3a.807.807,0,0,0-1.444,0L6.819,44.085H2.458a6.943,6.943,0,0,1-.844-3.268c0-3.536,2.452-6.2,5.7-6.2A5.266,5.266,0,0,1,11.7,37.038,9.244,9.244,0,0,1,13,39.62a.807.807,0,0,0,1.555,0c.014-.05,1.435-5,5.679-5,3.252,0,5.7,2.666,5.7,6.2A6.943,6.943,0,0,1,25.093,44.085Z" transform="translate(0 -33)"/></svg>