<svg xmlns="http://www.w3.org/2000/svg" xmlns:xlink="http://www.w3.org/1999/xlink" width="767.124" height="652.609" viewBox="0 0 767.124 652.609"><defs><style>.a{fill:url(#a);}.b{fill:url(#m);}.c{filter:url(#n);}.d{filter:url(#k);}.e{filter:url(#h);}.f{filter:url(#e);}.g{filter:url(#b);}</style><linearGradient id="a" x1="0.824" y1="1.099" x2="0.61" y2="-0.552" gradientUnits="objectBoundingBox"><stop offset="0" stop-color="#b721ff"/><stop offset="1" stop-color="#21d4fd"/></linearGradient><filter id="b" x="18.029" y="0" width="636.134" height="556.114" filterUnits="userSpaceOnUse"><feOffset dy="-14" input="SourceAlpha"/><feGaussianBlur stdDeviation="29" result="c"/><feFlood flood-opacity="0.129"/><feComposite operator="in" in2="c"/><feComposite in="SourceGraphic"/></filter><filter id="e" x="0" y="43.703" width="688.962" height="531.606" filterUnits="userSpaceOnUse"><feOffset dy="-14" input="SourceAlpha"/><feGaussianBlur stdDeviation="29" result="f"/><feFlood flood-opacity="0.129"/><feComposite operator="in" in2="f"/><feComposite in="SourceGraphic"/></filter><filter id="h" x="17.183" y="110.054" width="654.117" height="516.282" filterUnits="userSpaceOnUse"><feOffset dy="-14" input="SourceAlpha"/><feGaussianBlur stdDeviation="29" result="i"/><feFlood flood-opacity="0.129"/><feComposite operator="in" in2="i"/><feComposite in="SourceGraphic"/></filter><filter id="k" x="67.921" y="165.328" width="699.202" height="487.281" filterUnits="userSpaceOnUse"><feOffset dy="-14" input="SourceAlpha"/><feGaussianBlur stdDeviation="29" result="l"/><feFlood flood-opacity="0.129"/><feComposite operator="in" in2="l"/><feComposite in="SourceGraphic"/></filter><linearGradient id="m" x1="0.087" y1="0" x2="2.942" y2="3.332" xlink:href="#a"/><filter id="n" x="36.751" y="91.529" width="330.129" height="328.814" filterUnits="userSpaceOnUse"><feOffset dy="3" input="SourceAlpha"/><feGaussianBlur stdDeviation="30" result="o"/><feFlood flood-opacity="0.2"/><feComposite operator="in" in2="o"/><feComposite in="SourceGraphic"/></filter></defs><g transform="translate(87 101)"><g class="g" transform="matrix(1, 0, 0, 1, -87, -101)"><path class="a" d="M.413,382.114S-5.431,253.493,26.848,196.146,95.331,184.387,140.4,157.722s30.644-51.044,66.718-68.238,42.093,10.424,66.715-5.534S319.954,0,319.954,0L462.134,382.114l-324.219-30.66Z" transform="translate(105.03 101)"/></g><g class="f" transform="matrix(1, 0, 0, 1, -87, -101)"><path class="a" d="M0,353.259s68.3-88.935,152.95-139.953c63.815-38.462,79,4.287,134.852-22.268s69.685-64.691,105.181-82.366c39.179-19.509-51.467-19.777-24.725-37.885S451.824,0,451.824,0l63.137,338.822L166.79,357.606Z" transform="translate(87 144.7)"/></g><g class="e" transform="matrix(1, 0, 0, 1, -87, -101)"><path class="a" d="M0,342.283S96.419,218.771,153.084,188.647s85.56-7.524,132.029-23.335,55.165-69.139,97.2-86.332,50.372-2.769,79.059-18.727S477.283,0,477.283,0l-8.216,304.6-261.2,8.679-20.289-5.947Z" transform="translate(104.18 211.05)"/></g><g class="d" transform="matrix(1, 0, 0, 1, -87, -101)"><path class="a" d="M0,293.344s82.4-108.6,134.382-126.878,81.154.2,127.624-15.61,65.321-65.224,107.352-82.418,41.819-1.228,70.508-17.186S525.2,0,525.2,0l-8.217,304.6-261.2,8.679L235.5,307.334Z" transform="translate(154.92 266.33)"/></g><g class="c" transform="matrix(1, 0, 0, 1, -87, -101)"><ellipse class="b" cx="75.064" cy="74.407" rx="75.064" ry="74.407" transform="translate(126.75 178.53)"/></g></g></svg>