<svg xmlns="http://www.w3.org/2000/svg" width="45.074" height="45.074" viewBox="0 0 45.074 45.074"><defs><style>.a{fill:#fdc30b;}.b{fill:#3ba9fe;}</style></defs><g transform="translate(-283.472 -133)"><g transform="translate(279 128.526)"><g transform="translate(4.472 4.474)"><g transform="translate(0 0)"><path class="a" d="M1.325,30.175a.928.928,0,0,0,.855.607.883.883,0,0,0,.3-.055.919.919,0,0,0,.552-1.168A20.721,20.721,0,0,1,37.006,7.721l-2.327.028a.911.911,0,0,0,.009,1.821H34.7l4.526-.055a.914.914,0,0,0,.644-.276.936.936,0,0,0,.258-.644L40.069,4.07a.9.9,0,0,0-.92-.9.913.913,0,0,0-.9.92l.028,2.327a22.541,22.541,0,0,0-36.95,23.76Z" transform="translate(0 -0.003)"/></g><path class="a" d="M86.207,178.448a20.737,20.737,0,0,1-29.279.35l2.327-.028a.911.911,0,0,0-.009-1.821h-.009L54.711,177a.913.913,0,0,0-.9.92l.055,4.526a.917.917,0,0,0,.911.9h.009a.913.913,0,0,0,.9-.92l-.028-2.327a22.534,22.534,0,0,0,36.95-23.741.914.914,0,1,0-1.72.616A20.552,20.552,0,0,1,86.207,178.448Z" transform="translate(-48.86 -141.432)"/></g></g><path class="b" d="M324.111,133.493a2.238,2.238,0,0,0-3.725,2.48l4.478,6.716a2.257,2.257,0,0,0,1.769,1h.094a2.239,2.239,0,0,0,1.751-.842l8.955-11.194a2.239,2.239,0,1,0-3.5-2.8l-7.039,8.8Z" transform="translate(-22.862 20.101)"/></g></svg>