<svg xmlns="http://www.w3.org/2000/svg" width="28.469" height="24.91" viewBox="0 0 28.469 24.91"><defs><style>.a{fill:#fff;}</style></defs><g transform="translate(0 -32.008)"><path class="a" d="M27.579,138.676a.89.89,0,0,0-.89.89v6.228H1.779V135.117h9.786a.89.89,0,0,0,0-1.779H1.779v-3.559h9.786a.89.89,0,1,0,0-1.779H1.779A1.78,1.78,0,0,0,0,129.779v16.014a1.78,1.78,0,0,0,1.779,1.779H26.69a1.78,1.78,0,0,0,1.779-1.779v-6.228A.89.89,0,0,0,27.579,138.676Z" transform="translate(0 -90.654)"/><path class="a" d="M64.89,320a.89.89,0,0,0,0,1.779h3.559a.89.89,0,0,0,0-1.779Z" transform="translate(-60.441 -271.979)"/><path class="a" d="M269.7,34.748l-6.228-2.669a.908.908,0,0,0-.7,0l-6.228,2.669a.892.892,0,0,0-.537.818v3.559c0,4.895,1.81,7.756,6.674,10.558a.894.894,0,0,0,.886,0c4.865-2.8,6.674-5.656,6.674-10.558V35.566A.891.891,0,0,0,269.7,34.748Zm-1.24,4.377c0,4.108-1.359,6.37-5.338,8.754-3.979-2.39-5.338-4.651-5.338-8.754V36.153l5.338-2.288,5.338,2.288Z" transform="translate(-241.765)"/><path class="a" d="M321.64,130.2a.889.889,0,1,0-1.48.986l1.779,2.669a.9.9,0,0,0,.7.4h.037a.89.89,0,0,0,.7-.335l3.559-4.448a.89.89,0,1,0-1.39-1.112l-2.8,3.5Z" transform="translate(-302.217 -90.674)"/></g></svg>