<svg xmlns="http://www.w3.org/2000/svg" width="42" height="41.672" viewBox="0 0 42 41.672"><defs><style>.a{fill:#3ba9fe;}.b{fill:#fdc30b;}.c{fill:#fafafa;}</style></defs><g transform="translate(-49 -136)"><path class="a" d="M335.326,279.145l-7.111-1.778a.9.9,0,0,0-.43,0l-7.111,1.778a.889.889,0,0,0-.674.862v10.667c0,2.748,5.867,5.4,7.659,6.155a.888.888,0,0,0,.684,0c1.79-.75,7.657-3.406,7.657-6.155V280.007A.889.889,0,0,0,335.326,279.145Z" transform="translate(-245 -119.341)"/><path class="b" d="M24.906,35.595V25.177a2.6,2.6,0,0,1,1.974-2.526l1.78-.444a4.909,4.909,0,0,0,.642-2.238,1.422,1.422,0,0,1,.21-.894.868.868,0,0,0,.6-.521,12.917,12.917,0,0,0,.929-3.794.87.87,0,0,0-.026-.21,2.235,2.235,0,0,0-.842-1.264v-4.6c0-2.8-.854-3.945-1.755-4.61C28.245,2.724,26.8,0,21.488,0a9.053,9.053,0,0,0-8.682,8.682v4.6a2.235,2.235,0,0,0-.842,1.264.866.866,0,0,0-.026.21,12.915,12.915,0,0,0,.931,3.8.738.738,0,0,0,.521.5c.1.049.278.3.278.915a7.223,7.223,0,0,0,2.566,4.7c-.174,1.137-1.03,4.136-2.841,4.891L5.7,32.122a6.049,6.049,0,0,0-3.976,4.3L.678,40.59a.868.868,0,0,0,.842,1.082H30.239C27.384,40.1,24.906,38.036,24.906,35.595Z" transform="translate(48.349 136)"/><g transform="translate(79 162)"><path class="c" d="M366.83,320.9l-4.164.833v4.893h4.164Z" transform="translate(-362.667 -320.896)"/><path class="c" d="M416,394.24v5.5l4.164-2.03V394.24Z" transform="translate(-411.836 -388.514)"/></g></g></svg>