<svg xmlns="http://www.w3.org/2000/svg" xmlns:xlink="http://www.w3.org/1999/xlink" width="62" height="62" viewBox="0 0 62 62"><defs><style>.a{fill:#fff;}.b{fill:#7a828d;}.c{filter:url(#a);}</style><filter id="a" x="0" y="0" width="62" height="62" filterUnits="userSpaceOnUse"><feOffset input="SourceAlpha"/><feGaussianBlur stdDeviation="3" result="b"/><feFlood flood-color="#455b63" flood-opacity="0.161"/><feComposite operator="in" in2="b"/><feComposite in="SourceGraphic"/></filter></defs><g transform="translate(-306 -470)"><g class="c" transform="matrix(1, 0, 0, 1, 306, 470)"><rect class="a" width="44" height="44" rx="6" transform="translate(9 9)"/></g><path class="b" d="M18.782,12.318a7.308,7.308,0,0,1-6.464,6.464v.9a.818.818,0,1,1-1.636,0v-.9a7.159,7.159,0,0,1-6.464-6.464h-.9a.818.818,0,1,1,0-1.636h.9a7.159,7.159,0,0,1,6.464-6.464v-.9a.818.818,0,1,1,1.636,0v.9a7.308,7.308,0,0,1,6.464,6.464h.9a.818.818,0,1,1,0,1.636ZM11.5,17.227A5.727,5.727,0,1,0,5.773,11.5,5.692,5.692,0,0,0,11.5,17.227Zm0-2.455A3.273,3.273,0,1,1,14.773,11.5,3.282,3.282,0,0,1,11.5,14.773Zm0-1.636A1.636,1.636,0,1,0,9.864,11.5,1.641,1.641,0,0,0,11.5,13.136Z" transform="translate(325.5 489.5)"/></g></svg>