<svg xmlns="http://www.w3.org/2000/svg" width="20" height="21.818" viewBox="0 0 20 21.818"><defs><style>.a{fill:#fff;}</style></defs><g transform="translate(-71 -140)"><path class="a" d="M127.532,315H116.168a2.5,2.5,0,0,1-2.5-2.5V300.682a.682.682,0,1,1,1.364,0V312.5a1.138,1.138,0,0,0,1.136,1.136h11.364a1.138,1.138,0,0,0,1.136-1.136V300.682a.682.682,0,0,1,1.364,0V312.5a2.5,2.5,0,0,1-2.5,2.5Zm0,0" transform="translate(-40.85 -153.182)"/><path class="a" d="M90.318,209.455H71.682a.682.682,0,0,1-.682-.682V206.5a2.5,2.5,0,0,1,2.5-2.5h15a2.5,2.5,0,0,1,2.5,2.5v2.273a.682.682,0,0,1-.682.682Zm-17.955-1.364H89.636V206.5a1.138,1.138,0,0,0-1.136-1.136h-15a1.138,1.138,0,0,0-1.136,1.136Zm0,0" transform="translate(0 -61.273)"/><path class="a" d="M207.409,144.091a.682.682,0,0,1-.682-.682v-1.818a.227.227,0,0,0-.227-.227h-5.909a.227.227,0,0,0-.227.227v1.818a.682.682,0,1,1-1.364,0v-1.818A1.593,1.593,0,0,1,200.591,140H206.5a1.593,1.593,0,0,1,1.591,1.591v1.818a.682.682,0,0,1-.682.682Zm0,0" transform="translate(-122.545)"/><path class="a" d="M290.35,403.273a.682.682,0,0,1-.682-.682v-5.909a.682.682,0,0,1,1.364,0v5.909a.682.682,0,0,1-.682.682Zm0,0" transform="translate(-209.35 -245.091)"/><path class="a" d="M199.682,403.273a.682.682,0,0,1-.682-.682v-5.909a.682.682,0,1,1,1.364,0v5.909a.682.682,0,0,1-.682.682Zm0,0" transform="translate(-122.545 -245.091)"/><path class="a" d="M381.014,403.273a.682.682,0,0,1-.682-.682v-5.909a.682.682,0,1,1,1.364,0v5.909a.682.682,0,0,1-.682.682Zm0,0" transform="translate(-296.15 -245.091)"/></g></svg>