<svg xmlns="http://www.w3.org/2000/svg" width="45.833" height="50" viewBox="0 0 45.833 50"><defs><style>.a{fill:#f44336;}</style></defs><g transform="translate(-71 -140)"><path class="a" d="M145.439,334.375H119.4a5.734,5.734,0,0,1-5.729-5.729V301.563a1.563,1.563,0,0,1,3.125,0v27.083a2.608,2.608,0,0,0,2.6,2.6h26.042a2.608,2.608,0,0,0,2.6-2.6V301.563a1.563,1.563,0,0,1,3.125,0v27.083a5.734,5.734,0,0,1-5.729,5.729Zm0,0" transform="translate(-38.501 -144.375)"/><path class="a" d="M115.271,216.5H72.563A1.563,1.563,0,0,1,71,214.937v-5.208A5.734,5.734,0,0,1,76.729,204H111.1a5.734,5.734,0,0,1,5.729,5.729v5.208a1.563,1.563,0,0,1-1.562,1.563Zm-41.146-3.125h39.583v-3.646a2.608,2.608,0,0,0-2.6-2.6H76.729a2.608,2.608,0,0,0-2.6,2.6Zm0,0" transform="translate(0 -57.75)"/><path class="a" d="M218.271,149.375a1.563,1.563,0,0,1-1.562-1.562v-4.167a.521.521,0,0,0-.521-.521H202.646a.521.521,0,0,0-.521.521v4.167a1.563,1.563,0,0,1-3.125,0v-4.167A3.65,3.65,0,0,1,202.646,140h13.542a3.65,3.65,0,0,1,3.646,3.646v4.167a1.563,1.563,0,0,1-1.562,1.563Zm0,0" transform="translate(-115.5)"/><path class="a" d="M291.23,412.667a1.563,1.563,0,0,1-1.562-1.563V397.563a1.563,1.563,0,0,1,3.125,0V411.1a1.563,1.563,0,0,1-1.563,1.563Zm0,0" transform="translate(-197.314 -231)"/><path class="a" d="M200.563,412.667A1.563,1.563,0,0,1,199,411.1V397.563a1.563,1.563,0,0,1,3.125,0V411.1a1.563,1.563,0,0,1-1.562,1.563Zm0,0" transform="translate(-115.5 -231)"/><path class="a" d="M381.894,412.667a1.563,1.563,0,0,1-1.562-1.563V397.563a1.562,1.562,0,0,1,3.125,0V411.1a1.563,1.563,0,0,1-1.562,1.563Zm0,0" transform="translate(-279.124 -231)"/></g></svg>