<svg xmlns="http://www.w3.org/2000/svg" width="27.75" height="45" viewBox="0 0 27.75 45"><defs><style>.a{fill:#fdc30b;}.b{fill:#fafafa;}.c{fill:#3ba9fe;}</style></defs><g transform="translate(-94 -1229)"><rect class="a" width="27.75" height="45" rx="5" transform="translate(94 1229)"/><g transform="translate(95.882 1232.61)"><rect class="b" width="24.464" height="26.346" transform="translate(0 4.705)"/><circle class="b" cx="1.882" cy="1.882" r="1.882" transform="translate(10.35 33.873)"/><path class="b" d="M228.7,42.667h-3.764a.941.941,0,1,0,0,1.882H228.7a.941.941,0,1,0,0-1.882Z" transform="translate(-214.591 -42.667)"/><path class="b" d="M331.84,42.667h-.019a.941.941,0,1,0,.941.941.941.941,0,0,0-.941-.941Z" transform="translate(-312.043 -42.667)"/></g><path class="c" d="M-432.318,601.672a4.573,4.573,0,0,1-1.744,3.715q-2.485,2.229-7.5,1.967a4.626,4.626,0,0,0-.044,1.112q.152,3.117,2.725,3.117,2.681,0,4.926-2.943l.785.414a8.947,8.947,0,0,1-7,3.619,5.365,5.365,0,0,1-3.739-1.233,4.667,4.667,0,0,1-1.45-3.439,9.412,9.412,0,0,1,2.507-6.484,8.021,8.021,0,0,1,6.3-3.3,4.772,4.772,0,0,1,2.987.918A3.13,3.13,0,0,1-432.318,601.672Zm-1.373-.313q-.044-1.963-1.918-1.962-2.006,0-3.793,2.551a12.212,12.212,0,0,0-1.962,4.425h.981a8.214,8.214,0,0,0,4.512-1.264A4.075,4.075,0,0,0-433.692,601.359Z" transform="translate(546.997 644.927)"/></g></svg>