<svg xmlns="http://www.w3.org/2000/svg" width="25.938" height="25.921" viewBox="0 0 25.938 25.921"><defs><style>.a,.b{fill:#fff;}.b{stroke:#fff;stroke-width:0.5px;}</style></defs><g transform="translate(-610.214 -1736.75)"><path class="a" d="M322.057,130.751a1.117,1.117,0,1,0-1.859,1.238l2.234,3.351a1.126,1.126,0,0,0,.883.5h.047a1.117,1.117,0,0,0,.874-.42l4.468-5.586a1.117,1.117,0,1,0-1.745-1.4l-3.512,4.392Z" transform="translate(298.867 1617.636)"/><g transform="translate(610.472 1737)"><g transform="translate(0 0)"><g transform="translate(0 0)"><path class="b" d="M.747,17.019a.523.523,0,0,0,.482.342A.5.5,0,0,0,1.4,17.33a.518.518,0,0,0,.311-.659A11.686,11.686,0,0,1,20.871,4.356l-1.313.016A.514.514,0,0,0,19.563,5.4h.005l2.552-.031a.516.516,0,0,0,.363-.156.528.528,0,0,0,.145-.363L22.6,2.3a.508.508,0,0,0-.519-.508.515.515,0,0,0-.508.519l.016,1.313A12.713,12.713,0,0,0,.747,17.019Z" transform="translate(0 -0.003)"/></g><path class="b" d="M72.081,168.555a11.7,11.7,0,0,1-16.513.2l1.313-.016a.514.514,0,0,0-.005-1.027h-.005l-2.552.031a.515.515,0,0,0-.508.519l.031,2.552a.517.517,0,0,0,.514.508h.005a.515.515,0,0,0,.508-.519l-.016-1.313A12.709,12.709,0,0,0,75.692,156.1a.515.515,0,1,0-.97.348A11.591,11.591,0,0,1,72.081,168.555Z" transform="translate(-51.018 -147.679)"/></g></g></g></svg>