<svg xmlns="http://www.w3.org/2000/svg" width="14.538" height="23.574" viewBox="0 0 14.538 23.574"><defs><style>.a{fill:#3ba9fe;}.b{fill:#fafafa;}</style></defs><g transform="translate(-94 -1229)"><rect class="a" width="14.538" height="23.574" rx="1.5" transform="translate(94 1229)"/><g transform="translate(94.986 1230.891)"><rect class="b" width="12.816" height="13.802" transform="translate(0 2.465)"/><circle class="b" cx="0.986" cy="0.986" r="0.986" transform="translate(5.422 17.745)"/><path class="b" d="M226.465,42.667h-1.972a.493.493,0,1,0,0,.986h1.972a.493.493,0,1,0,0-.986Z" transform="translate(-219.071 -42.667)"/><path class="b" d="M331.383,42.667h-.01a.493.493,0,1,0,.493.493.493.493,0,0,0-.493-.493Z" transform="translate(-321.012 -42.667)"/></g><path class="a" d="M-438.528,600.028a2.4,2.4,0,0,1-.914,1.946A5.294,5.294,0,0,1-443.37,603a2.423,2.423,0,0,0-.023.583q.08,1.633,1.427,1.633a3.289,3.289,0,0,0,2.581-1.542l.411.217a4.687,4.687,0,0,1-3.666,1.9,2.811,2.811,0,0,1-1.959-.646,2.445,2.445,0,0,1-.759-1.8,4.93,4.93,0,0,1,1.313-3.4,4.2,4.2,0,0,1,3.3-1.727,2.5,2.5,0,0,1,1.565.481A1.64,1.64,0,0,1-438.528,600.028Zm-.72-.164q-.023-1.028-1-1.028a2.551,2.551,0,0,0-1.987,1.336,6.4,6.4,0,0,0-1.028,2.318h.514a4.3,4.3,0,0,0,2.364-.662A2.135,2.135,0,0,0-439.247,599.864Z" transform="translate(543.361 638.192)"/></g></svg>