<svg xmlns="http://www.w3.org/2000/svg" width="20.558" height="20.312" viewBox="0 0 20.558 20.312"><defs><style>.a{fill:#2f2e41;stroke:#2f2e41;stroke-width:0.25px;}</style></defs><g transform="translate(-304.075 -134.587)"><path class="a" d="M123.61,246.015a.5.5,0,0,0-.5.5v4.459a1.508,1.508,0,0,1-1.507,1.507H107.511A1.508,1.508,0,0,1,106,250.976V237.89a1.508,1.508,0,0,1,1.507-1.507h4.459a.5.5,0,0,0,0-1h-4.459A2.514,2.514,0,0,0,105,237.89v13.087a2.514,2.514,0,0,0,2.511,2.511H121.6a2.514,2.514,0,0,0,2.511-2.511v-4.459a.5.5,0,0,0-.5-.5Zm0,0" transform="translate(199.2 -98.713)"/><path class="a" d="M226.53,197.183a2.26,2.26,0,0,0-3.2,0l-8.959,8.959a.5.5,0,0,0-.129.221l-1.178,4.253a.5.5,0,0,0,.618.618l4.253-1.178a.5.5,0,0,0,.221-.129l8.959-8.959a2.262,2.262,0,0,0,0-3.2Zm-11.061,9.286,7.332-7.333,2.365,2.365-7.333,7.333Zm-.472.948,1.889,1.89-2.613.724Zm11.412-7.158-.532.533-2.365-2.365.533-.533a1.256,1.256,0,0,1,1.775,0l.589.589a1.257,1.257,0,0,1,0,1.776Zm0,0" transform="translate(96.584 -61.808)"/></g></svg>