<svg xmlns="http://www.w3.org/2000/svg" width="45.733" height="40.459" viewBox="0 0 45.733 40.459"><defs><style>.a{fill:#fdc30b;}.b{fill:#6d6c6b;}.c{fill:#3ba9fe;}.d{fill:#fafafa;}</style></defs><g transform="translate(-165 -133.084)"><g transform="translate(167.366 143.581)"><circle class="a" cx="3.942" cy="3.942" r="3.942" transform="translate(15.77)"/><circle class="a" cx="3.154" cy="3.154" r="3.154" transform="translate(31.54 5.516)"/><path class="a" d="M59.039,166.305l-1.784-3.566a3.89,3.89,0,0,0-.552-1.109l-.03-.055h-.018a3.906,3.906,0,0,0-6.272,0h-.018l-.028.055a3.89,3.89,0,0,0-.552,1.109L48,166.305h2.384a3.906,3.906,0,0,0,6.272,0Z" transform="translate(-48 -158.42)"/></g><g transform="translate(172.097 134.119)"><path class="b" d="M457.669,177.257a.789.789,0,0,1-.788-.789,18.807,18.807,0,0,0-1.577-7.57.788.788,0,1,1,1.425-.675c.007.015.013.029.019.044a20.354,20.354,0,0,1,1.709,8.2A.789.789,0,0,1,457.669,177.257Z" transform="translate(-419.821 -155.968)"/><path class="b" d="M96.788,56.477a.788.788,0,0,1-.6-1.3A20.487,20.487,0,0,1,111.769,48a.788.788,0,0,1,0,1.577A18.909,18.909,0,0,0,97.387,56.2.789.789,0,0,1,96.788,56.477Z" transform="translate(-95.999 -48)"/></g><path class="a" d="M69.241,234.891l-5.251-5.25a3.937,3.937,0,0,0-5.568,0L56.99,231a2.05,2.05,0,0,1-2.867-.037l-.013-.013-.938-.938L48.86,225.7a3.938,3.938,0,0,0-5.568,0L38.8,230.2l-4.134-2.968a3.942,3.942,0,0,0-5.568,0l-4.611,4.662a1.673,1.673,0,0,0,2.365,2.365l1.876-1.929-2.365,9.516h2.365V245a1.577,1.577,0,0,0,3.154,0,1.577,1.577,0,0,0,3.154,0v-3.154H37.4l-2.365-9.516,2.636,1.363a2.4,2.4,0,0,0,1.1.268c.043,0,.083-.01.125-.013l-.016.013c.032,0,.063-.008.1-.009s.063.009.1.009a1.673,1.673,0,0,0,1.183-.49l.213-.213,2.449-2.451V245a1.577,1.577,0,0,0,3.154,0,1.577,1.577,0,0,0,3.154,0V230.8l1.577,1.577.938.938,1.349,1.349a3.373,3.373,0,0,0,4.769.118l.041-.04V245a1.577,1.577,0,0,0,3.154,0,1.577,1.577,0,0,0,3.154,0v-10.25l2.664,2.511a1.673,1.673,0,0,0,2.366-2.365Z" transform="translate(141.002 -73.029)"/><g transform="translate(-14 9.084)"><path class="c" d="M329.774,278.491l-4.535-1.134a.576.576,0,0,0-.274,0l-4.535,1.134a.567.567,0,0,0-.43.55v6.8c0,1.753,3.741,3.447,4.884,3.925a.566.566,0,0,0,.436,0c1.142-.478,4.883-2.172,4.883-3.925v-6.8A.567.567,0,0,0,329.774,278.491Z" transform="translate(-113 -153.341)"/><g transform="translate(209.551 126.551)"><path class="d" d="M365.322,320.9l-2.655.531v3.12h2.655Z" transform="translate(-362.667 -320.896)"/><path class="d" d="M416,394.24v3.509l2.655-1.295V394.24Z" transform="translate(-413.345 -390.588)"/></g></g></g></svg>