<svg xmlns="http://www.w3.org/2000/svg" width="25" height="24.999" viewBox="0 0 25 24.999"><defs><style>.a{fill:#fff;}</style></defs><path class="a" d="M188.6,53.576,177.041,42.493a.781.781,0,0,0-1.081,0L164.385,53.587a1.32,1.32,0,0,0-.385.927,1.3,1.3,0,0,0,1.3,1.3h1.823v9.9a1.563,1.563,0,0,0,1.563,1.563h4.427a.782.782,0,0,0,.781-.781V59.723a.261.261,0,0,1,.26-.261h4.688a.262.262,0,0,1,.26.261v6.771a.782.782,0,0,0,.781.781h4.427a1.563,1.563,0,0,0,1.563-1.562v-9.9H187.7a1.3,1.3,0,0,0,1.3-1.3,1.33,1.33,0,0,0-.4-.939Zm0,0" transform="translate(-164 -42.275)"/></svg>