<svg xmlns="http://www.w3.org/2000/svg" width="39.196" height="40" viewBox="0 0 39.196 40"><defs><style>.a{fill:#3ba9fe;}.b{fill:#fdc30b;}.c{fill:none;}</style></defs><g transform="translate(-282 -373)"><path class="a" d="M320.859,412.36c0,2.961-8.7,5.359-19.43,5.359S282,415.321,282,412.36,290.7,407,301.43,407s19.43,2.4,19.43,5.362Zm0,0" transform="translate(0 -5.524)"/><path class="b" d="M311.307,376.966a12.181,12.181,0,0,0-17.222,0c-4.286,4.286-4.766,12.357-1.132,17.205l9.743,14.068,9.742-14.068c3.638-4.848,3.154-12.92-1.132-17.205Zm-8.493,12.514a4.021,4.021,0,1,1,4.021-4.021,4.02,4.02,0,0,1-4.021,4.021Zm0,0" transform="translate(-1.384 -0.065)"/><rect class="c" width="39.196" height="40" transform="translate(282 373)"/></g></svg>