<svg xmlns="http://www.w3.org/2000/svg" width="46.398" height="44.801" viewBox="0 0 46.398 44.801"><defs><style>.a{fill:#fdc30b;}.b{fill:#3ba9fe;}.c{fill:#fff;}</style></defs><g transform="translate(-282 -374)"><path class="a" d="M320.4,389.145v16.91A3.943,3.943,0,0,1,316.457,410H299.6l-8,8.8V410h-5.661A3.943,3.943,0,0,1,282,406.059V389.145a3.944,3.944,0,0,1,3.941-3.946h30.516a3.943,3.943,0,0,1,3.941,3.946Zm0,0"/><path class="b" d="M324.457,374H293.941A3.944,3.944,0,0,0,290,377.945V385.2h26.457a3.943,3.943,0,0,1,3.941,3.946V398.8h4.059a3.943,3.943,0,0,0,3.941-3.946v-16.91A3.943,3.943,0,0,0,324.457,374Zm0,0"/><path class="c" d="M302,394.012H290.8a.8.8,0,0,1,0-1.6H302a.8.8,0,0,1,0,1.6Zm0,0"/><path class="c" d="M312.4,398.813H290.8a.8.8,0,0,1,0-1.6h21.6a.8.8,0,1,1,0,1.6Zm0,0"/><path class="c" d="M312.4,403.613H290.8a.8.8,0,1,1,0-1.6h21.6a.8.8,0,1,1,0,1.6Zm0,0"/></g></svg>