<svg xmlns="http://www.w3.org/2000/svg" xmlns:xlink="http://www.w3.org/1999/xlink" width="375" height="812" viewBox="0 0 375 812"><defs><style>.a{fill:#fff;stroke:#707070;}.b{fill:url(#a);}.c{clip-path:url(#b);}.d{clip-path:url(#d);}.e,.fj{mix-blend-mode:multiply;isolation:isolate;}.f{fill:url(#e);}.g{fill:url(#f);}.h{fill:url(#g);}.i{fill:url(#h);}.j{fill:url(#i);}.k{fill:url(#j);}.l{fill:url(#k);}.m{fill:url(#l);}.n{fill:url(#m);}.o{fill:url(#n);}.p{fill:url(#o);}.q{fill:url(#p);}.r{fill:url(#q);}.s{fill:url(#r);}.t{fill:url(#s);}.u{fill:url(#t);}.v{fill:url(#u);}.w{fill:url(#v);}.x{fill:url(#w);}.y{fill:url(#x);}.z{fill:url(#y);}.aa{fill:url(#z);}.ab{fill:url(#aa);}.ac{fill:url(#ab);}.ad{fill:url(#ac);}.ae{fill:url(#ad);}.af{fill:url(#ae);}.ag{fill:url(#af);}.ah{fill:url(#ag);}.ai{fill:url(#ah);}.aj{fill:url(#ai);}.ak{fill:url(#aj);}.al{fill:url(#ak);}.am{fill:url(#al);}.an{fill:url(#am);}.ao{fill:url(#an);}.ap{fill:url(#ao);}.aq{fill:url(#ap);}.ar{fill:url(#aq);}.as{fill:url(#ar);}.at{fill:url(#as);}.au{fill:url(#at);}.av{fill:url(#au);}.aw{fill:url(#av);}.ax{fill:url(#aw);}.ay{fill:url(#ax);}.az{fill:url(#ay);}.ba{fill:url(#az);}.bb{fill:url(#ba);}.bc{fill:url(#bb);}.bd{fill:url(#bc);}.be{fill:url(#bd);}.bf{fill:url(#be);}.bg{fill:url(#bf);}.bh{fill:url(#bg);}.bi{fill:url(#bh);}.bj{fill:url(#bi);}.bk{fill:url(#bj);}.bl{fill:url(#bk);}.bm{fill:url(#bl);}.bn{fill:url(#bm);}.bo{fill:url(#bn);}.bp{fill:url(#bo);}.bq{fill:url(#bp);}.br{fill:url(#bq);}.bs{fill:url(#br);}.bt{fill:url(#bs);}.bu{fill:url(#bt);}.bv{fill:url(#bu);}.bw{fill:url(#bv);}.bx{fill:url(#bw);}.by{fill:url(#bx);}.bz{fill:url(#by);}.ca{fill:url(#bz);}.cb{fill:url(#ca);}.cc{fill:url(#cb);}.cd{fill:url(#cc);}.ce{fill:url(#cd);}.cf{fill:url(#ce);}.cg{fill:url(#cf);}.ch{fill:url(#cg);}.ci{fill:url(#ch);}.cj{fill:url(#ci);}.ck{fill:url(#cj);}.cl{fill:url(#ck);}.cm{fill:url(#cl);}.cn{fill:url(#cm);}.co{fill:url(#cn);}.cp{fill:url(#co);}.cq{fill:url(#cp);}.cr{fill:url(#cq);}.cs{fill:url(#cr);}.ct{fill:url(#cs);}.cu{fill:url(#ct);}.cv{fill:url(#cu);}.cw{fill:url(#cv);}.cx{fill:url(#cw);}.cy{fill:url(#cx);}.cz{fill:url(#cy);}.da{fill:url(#cz);}.db{fill:url(#da);}.dc{fill:url(#db);}.dd{fill:url(#dc);}.de{fill:url(#dd);}.df{fill:url(#de);}.dg{fill:url(#df);}.dh{fill:url(#dg);}.di{fill:url(#dh);}.dj{fill:url(#di);}.dk{fill:url(#dj);}.dl{fill:url(#dk);}.dm{fill:url(#dl);}.dn{fill:url(#dm);}.do{fill:url(#dn);}.dp{fill:url(#do);}.dq{fill:url(#dp);}.dr{fill:url(#dq);}.ds{fill:url(#dr);}.dt{fill:url(#ds);}.du{fill:url(#dt);}.dv{fill:url(#du);}.dw{fill:url(#dv);}.dx{fill:url(#dw);}.dy{fill:url(#dx);}.dz{fill:url(#dy);}.ea{fill:url(#dz);}.eb{fill:url(#ea);}.ec{fill:url(#eb);}.ed{fill:url(#ec);}.ee{fill:url(#ed);}.ef{fill:url(#ee);}.eg{fill:url(#ef);}.eh{fill:url(#eg);}.ei{fill:url(#eh);}.ej{fill:url(#ei);}.ek{fill:url(#ej);}.el{fill:url(#ek);}.em{fill:url(#el);}.en{fill:url(#em);}.eo{fill:url(#en);}.ep{fill:url(#eo);}.eq{fill:url(#ep);}.er{fill:url(#eq);}.es{fill:url(#er);}.et{fill:url(#es);}.eu{fill:url(#et);}.ev{fill:url(#eu);}.ew{fill:url(#ev);}.ex{fill:url(#ew);}.ey{fill:url(#ex);}.ez{fill:url(#ey);}.fa{fill:url(#ez);}.fb{fill:url(#fa);}.fc{fill:url(#fb);}.fd{fill:url(#fc);}.fe{fill:url(#fd);}.ff{fill:url(#fe);}.fg{fill:url(#ff);}.fh{fill:url(#fg);}.fi{fill:url(#fh);}.fj{opacity:0.2;}.fk{fill:url(#fi);}.fl{fill:url(#fj);}.fm{fill:url(#fk);}.fn{fill:url(#fl);}.fo{fill:url(#fm);}.fp{fill:url(#fo);}.fq{fill:url(#fp);}.fr{fill:url(#fq);}.fs{fill:url(#fr);}.ft{fill:url(#fs);}.fu{fill:url(#fu);}.fv{fill:url(#fv);}.fw{fill:url(#fw);}.fx{fill:url(#fx);}.fy{fill:url(#fy);}.fz{fill:url(#fz);}.ga{fill:url(#ga);}.gb{fill:url(#gc);}.gc{fill:url(#gd);}.gd{fill:url(#ge);}.ge{fill:url(#gf);}.gf{fill:url(#gg);}.gg{fill:url(#gh);}.gh{fill:url(#gi);}.gi{fill:url(#gj);}.gj{fill:url(#gk);}.gk{fill:url(#gl);}.gl{fill:url(#gm);}.gm{fill:url(#gn);}.gn{fill:url(#go);}.go{fill:url(#gp);}.gp{fill:url(#gq);}.gq{fill:url(#gr);}.gr{fill:url(#gs);}.gs{fill:url(#gt);}.gt{fill:url(#gv);}.gu{fill:url(#gw);}.gv{fill:url(#gx);}.gw{fill:url(#gy);}.gx{fill:url(#gz);}.gy{fill:url(#ha);}.gz{fill:url(#hb);}.ha{fill:url(#hc);}.hb{fill:url(#hd);}.hc{fill:url(#he);}.hd{fill:url(#hf);}.he{fill:url(#hg);}.hf{fill:url(#hh);}.hg{fill:url(#hi);}.hh{fill:url(#hj);}.hi{fill:url(#hk);}.hj{fill:url(#hl);}.hk{fill:url(#hm);}.hl{fill:url(#hn);}.hm{fill:url(#ho);}.hn{fill:url(#hp);}.ho{fill:url(#hq);}.hp{fill:url(#hr);}.hq{fill:url(#hs);}.hr{fill:url(#ht);}.hs{fill:url(#hu);}.ht{fill:url(#hv);}.hu{fill:url(#hw);}.hv{fill:url(#hx);}.hw{fill:url(#hy);}.hx{fill:url(#hz);}.hy{fill:url(#ia);}.hz{fill:url(#ib);}.ia{fill:url(#ic);}.ib{fill:url(#id);}.ic{fill:url(#ie);}.id{fill:url(#if);}.ie{fill:url(#ig);}.if{fill:url(#ih);}.ig{fill:url(#ii);}.ih{fill:url(#ij);}.ii{fill:url(#ik);}.ij{fill:url(#il);}.ik{fill:url(#im);}.il{fill:url(#in);}.im{fill:url(#io);}.in{fill:url(#ip);}.io{fill:url(#iq);}.ip{fill:url(#ir);}.iq{fill:url(#is);}.ir{fill:url(#it);}.is{fill:url(#iu);}.it{fill:url(#iv);}.iu{fill:url(#iw);}.iv{fill:url(#ix);}.iw{fill:url(#iy);}.ix{fill:url(#iz);}.iy{fill:url(#ja);}.iz{fill:url(#jb);}.ja{fill:url(#jc);}.jb{fill:url(#jd);}.jc{fill:url(#je);}.jd{fill:url(#jf);}.je{fill:url(#jg);}.jf{fill:url(#jh);}.jg{fill:url(#ji);}.jh{fill:url(#jj);}.ji{fill:url(#jk);}.jj{fill:url(#jl);}.jk{fill:url(#jm);}.jl{fill:url(#jn);}.jm{fill:url(#jo);}.jn{fill:url(#jp);}.jo{fill:url(#jq);}.jp{fill:url(#jr);}.jq{fill:url(#js);}.jr{fill:url(#jt);}</style><linearGradient id="a" x1="0.287" y1="-0.052" x2="0.782" y2="1.23" gradientUnits="objectBoundingBox"><stop offset="0" stop-color="#fff"/><stop offset="1" stop-color="#f0f7fc"/></linearGradient><clipPath id="b"><rect class="a" width="375" height="812"/></clipPath><clipPath id="d"><rect class="b" width="1117" height="812"/></clipPath><linearGradient id="e" x1="5.181" y1="6.76" x2="0.097" y2="-0.039" gradientUnits="objectBoundingBox"><stop offset="0" stop-color="#52bbe8"/><stop offset="0.196" stop-color="#68c3ea"/><stop offset="0.604" stop-color="#a2d8f1"/><stop offset="1" stop-color="#e1eff8"/></linearGradient><linearGradient id="f" x1="4.887" y1="6.366" x2="-0.197" y2="-0.432" xlink:href="#e"/><linearGradient id="g" x1="4.593" y1="5.973" x2="-0.491" y2="-0.826" xlink:href="#e"/><linearGradient id="h" x1="4.299" y1="5.579" x2="-0.786" y2="-1.219" xlink:href="#e"/><linearGradient id="i" x1="6.302" y1="5.233" x2="-1.869" y2="-1.566" xlink:href="#e"/><linearGradient id="j" x1="6.112" y1="8.004" x2="1.028" y2="1.206" xlink:href="#e"/><linearGradient id="k" x1="4.641" y1="6.037" x2="-0.443" y2="-0.761" xlink:href="#e"/><linearGradient id="l" x1="4.347" y1="5.644" x2="-0.738" y2="-1.155" xlink:href="#e"/><linearGradient id="m" x1="4.052" y1="5.25" x2="-1.032" y2="-1.548" xlink:href="#e"/><linearGradient id="n" x1="3.758" y1="4.857" x2="-1.326" y2="-1.942" xlink:href="#e"/><linearGradient id="o" x1="25.5" y1="7.11" x2="-15.374" y2="-3.778" xlink:href="#e"/><linearGradient id="p" x1="3.806" y1="4.921" x2="-1.278" y2="-1.878" xlink:href="#e"/><linearGradient id="q" x1="3.512" y1="4.527" x2="-1.572" y2="-2.271" xlink:href="#e"/><linearGradient id="r" x1="5.037" y1="4.181" x2="-3.134" y2="-2.618" xlink:href="#e"/><linearGradient id="s" x1="3.266" y1="4.198" x2="-1.819" y2="-2.601" xlink:href="#e"/><linearGradient id="t" x1="2.971" y1="3.805" x2="-2.113" y2="-2.994" xlink:href="#e"/><linearGradient id="u" x1="19.174" y1="5.425" x2="-21.7" y2="-5.464" xlink:href="#e"/><linearGradient id="v" x1="4.785" y1="6.229" x2="-0.3" y2="-0.569" xlink:href="#e"/><linearGradient id="w" x1="2.725" y1="3.475" x2="-2.359" y2="-3.323" xlink:href="#e"/><linearGradient id="x" x1="3.773" y1="3.128" x2="-4.398" y2="-3.67" xlink:href="#e"/><linearGradient id="y" x1="4.538" y1="5.9" x2="-0.546" y2="-0.899" xlink:href="#e"/><linearGradient id="z" x1="4.244" y1="5.506" x2="-0.84" y2="-1.292" xlink:href="#e"/><linearGradient id="aa" x1="3.95" y1="5.113" x2="-1.134" y2="-1.686" xlink:href="#e"/><linearGradient id="ab" x1="3.656" y1="4.72" x2="-1.429" y2="-2.079" xlink:href="#e"/><linearGradient id="ac" x1="12.848" y1="3.74" x2="-28.026" y2="-7.149" xlink:href="#e"/><linearGradient id="ad" x1="3.998" y1="5.177" x2="-1.087" y2="-1.621" xlink:href="#e"/><linearGradient id="ae" x1="3.704" y1="4.784" x2="-1.381" y2="-2.015" xlink:href="#e"/><linearGradient id="af" x1="3.409" y1="4.39" x2="-1.675" y2="-2.408" xlink:href="#e"/><linearGradient id="ag" x1="3.809" y1="9.047" x2="-1.275" y2="-3.726" xlink:href="#e"/><linearGradient id="ah" x1="3.515" y1="8.308" x2="-1.57" y2="-4.465" xlink:href="#e"/><linearGradient id="ai" x1="3.22" y1="7.569" x2="-1.864" y2="-5.204" xlink:href="#e"/><linearGradient id="aj" x1="2.926" y1="6.83" x2="-2.158" y2="-5.943" xlink:href="#e"/><linearGradient id="ak" x1="1.749" y1="3.873" x2="-3.335" y2="-8.9" xlink:href="#e"/><linearGradient id="al" x1="1.455" y1="3.134" x2="-3.629" y2="-9.639" xlink:href="#e"/><linearGradient id="am" x1="4.209" y1="8.838" x2="0.358" y2="-0.043" xlink:href="#e"/><linearGradient id="an" x1="3.919" y1="8.168" x2="0.067" y2="-0.713" xlink:href="#e"/><linearGradient id="ao" x1="4.658" y1="7.703" x2="-0.592" y2="-1.178" xlink:href="#e"/><linearGradient id="ap" x1="3.72" y1="4.806" x2="-0.131" y2="-0.344" xlink:href="#e"/><linearGradient id="aq" x1="3.43" y1="4.418" x2="-0.421" y2="-0.732" xlink:href="#e"/><linearGradient id="ar" x1="11.999" y1="5.434" x2="-3.912" y2="-1.506" xlink:href="#e"/><linearGradient id="as" x1="3.187" y1="4.093" x2="-0.665" y2="-1.057" xlink:href="#e"/><linearGradient id="at" x1="3.868" y1="3.737" x2="-1.382" y2="-1.413" xlink:href="#e"/><linearGradient id="au" x1="16.877" y1="7.82" x2="1.275" y2="0.925" xlink:href="#e"/><linearGradient id="av" x1="4.396" y1="5.709" x2="0.545" y2="0.56" xlink:href="#e"/><linearGradient id="aw" x1="4.105" y1="5.321" x2="0.254" y2="0.171" xlink:href="#e"/><linearGradient id="ax" x1="8.79" y1="4.034" x2="-7.122" y2="-2.906" xlink:href="#e"/><linearGradient id="ay" x1="5.348" y1="5.352" x2="0.132" y2="0.202" xlink:href="#e"/><linearGradient id="az" x1="3.862" y1="4.996" x2="0.011" y2="-0.154" xlink:href="#e"/><linearGradient id="ba" x1="3.572" y1="4.607" x2="-0.279" y2="-0.542" xlink:href="#e"/><linearGradient id="bb" x1="13.73" y1="6.43" x2="-1.872" y2="-0.466" xlink:href="#e"/><linearGradient id="bc" x1="3.619" y1="4.671" x2="-0.232" y2="-0.479" xlink:href="#e"/><linearGradient id="bd" x1="3.329" y1="4.282" x2="-0.523" y2="-0.867" xlink:href="#e"/><linearGradient id="be" x1="1.876" y1="2.34" x2="-1.975" y2="-2.809" xlink:href="#e"/><linearGradient id="bf" x1="13.689" y1="35.854" x2="-5.171" y2="-14.583" xlink:href="#e"/><linearGradient id="bg" x1="4.396" y1="4.423" x2="-0.82" y2="-0.909" xlink:href="#e"/><linearGradient id="bh" x1="3.085" y1="4.097" x2="-0.766" y2="-1.235" xlink:href="#e"/><linearGradient id="bi" x1="2.795" y1="3.695" x2="-1.056" y2="-1.637" xlink:href="#e"/><linearGradient id="bj" x1="1.633" y1="2.086" x2="-2.218" y2="-3.245" xlink:href="#e"/><linearGradient id="bk" x1="1.75" y1="1.718" x2="-3.5" y2="-3.613" xlink:href="#e"/><linearGradient id="bl" x1="3.429" y1="8.332" x2="-15.888" y2="-43.325" xlink:href="#e"/><linearGradient id="bm" x1="13.689" y1="35.854" x2="-5.171" y2="-14.583" xlink:href="#e"/><linearGradient id="bn" x1="3.217" y1="15.533" x2="-0.993" y2="-6.988" xlink:href="#e"/><linearGradient id="bo" x1="2.9" y1="13.834" x2="-1.311" y2="-8.686" xlink:href="#e"/><linearGradient id="bp" x1="2.582" y1="12.136" x2="-1.628" y2="-10.385" xlink:href="#e"/><linearGradient id="bq" x1="2.264" y1="10.437" x2="-1.946" y2="-12.083" xlink:href="#e"/><linearGradient id="br" x1="1.947" y1="8.739" x2="-2.264" y2="-13.782" xlink:href="#e"/><linearGradient id="bs" x1="1.629" y1="7.04" x2="-2.581" y2="-15.48" xlink:href="#e"/><linearGradient id="bt" x1="1.312" y1="5.342" x2="-2.899" y2="-17.179" xlink:href="#e"/><linearGradient id="bu" x1="3.429" y1="8.333" x2="-15.887" y2="-43.325" xlink:href="#e"/><linearGradient id="bv" x1="78.641" y1="121.15" x2="7.646" y2="11.534" xlink:href="#e"/><linearGradient id="bw" x1="432.86" y1="668.064" x2="13.184" y2="20.084" xlink:href="#e"/><linearGradient id="bx" x1="36.625" y1="56.276" x2="-0.407" y2="-0.901" xlink:href="#e"/><linearGradient id="by" x1="55.155" y1="84.909" x2="-4.002" y2="-6.452" xlink:href="#e"/><linearGradient id="bz" x1="57.668" y1="88.767" x2="-8.105" y2="-12.786" xlink:href="#e"/><linearGradient id="ca" x1="124.611" y1="192.126" x2="-3.029" y2="-4.949" xlink:href="#e"/><linearGradient id="cb" x1="59.739" y1="91.939" x2="-4.818" y2="-7.709" xlink:href="#e"/><linearGradient id="cc" x1="32.343" y1="49.665" x2="-4.426" y2="-7.105" xlink:href="#e"/><linearGradient id="cd" x1="80.233" y1="123.655" x2="-6.956" y2="-11.017" xlink:href="#e"/><linearGradient id="ce" x1="41.184" y1="63.316" x2="-6.137" y2="-9.747" xlink:href="#e"/><linearGradient id="cf" x1="32.542" y1="49.972" x2="-7.106" y2="-11.243" xlink:href="#e"/><linearGradient id="cg" x1="65.503" y1="100.832" x2="-10.381" y2="-16.295" xlink:href="#e"/><linearGradient id="ch" x1="53.393" y1="82.168" x2="-12.568" y2="-19.678" xlink:href="#e"/><linearGradient id="ci" x1="69.917" y1="107.68" x2="-22.603" y2="-35.171" xlink:href="#e"/><linearGradient id="cj" x1="78.905" y1="121.556" x2="-19.256" y2="-30.003" xlink:href="#e"/><linearGradient id="ck" x1="46.857" y1="72.075" x2="-15.45" y2="-24.127" xlink:href="#e"/><linearGradient id="cl" x1="38.487" y1="59.151" x2="-16.374" y2="-25.554" xlink:href="#e"/><linearGradient id="cm" x1="48.878" y1="75.217" x2="-16.421" y2="-25.634" xlink:href="#e"/><linearGradient id="cn" x1="58.911" y1="90.686" x2="3.399" y2="4.975" xlink:href="#e"/><linearGradient id="co" x1="98.132" y1="151.243" x2="9.932" y2="15.064" xlink:href="#e"/><linearGradient id="cp" x1="135.183" y1="208.451" x2="18.93" y2="28.956" xlink:href="#e"/><linearGradient id="cq" x1="44.373" y1="68.24" x2="6.401" y2="9.611" xlink:href="#e"/><linearGradient id="cr" x1="47.891" y1="73.658" x2="2.717" y2="3.922" xlink:href="#e"/><linearGradient id="cs" x1="40.524" y1="62.309" x2="-8.43" y2="-13.29" xlink:href="#e"/><linearGradient id="ct" x1="78.19" y1="120.453" x2="-17.569" y2="-27.399" xlink:href="#e"/><linearGradient id="cu" x1="39.702" y1="61.042" x2="-11.899" y2="-18.648" xlink:href="#e"/><linearGradient id="cv" x1="58.143" y1="89.501" x2="-23.622" y2="-36.744" xlink:href="#e"/><linearGradient id="cw" x1="26.826" y1="41.147" x2="-8.115" y2="-12.802" xlink:href="#e"/><linearGradient id="cx" x1="33.271" y1="51.098" x2="-13.843" y2="-21.646" xlink:href="#e"/><linearGradient id="cy" x1="28.354" y1="43.507" x2="-18.917" y2="-29.48" xlink:href="#e"/><linearGradient id="cz" x1="26.318" y1="40.364" x2="-13.774" y2="-21.539" xlink:href="#e"/><linearGradient id="da" x1="28.614" y1="43.907" x2="-15.473" y2="-24.162" xlink:href="#e"/><linearGradient id="db" x1="47.4" y1="72.894" x2="-14.079" y2="-22.005" xlink:href="#e"/><linearGradient id="dc" x1="54.012" y1="83.123" x2="-22.233" y2="-34.6" xlink:href="#e"/><linearGradient id="dd" x1="46.558" y1="71.613" x2="-24.616" y2="-38.279" xlink:href="#e"/><linearGradient id="de" x1="35.194" y1="54.067" x2="-36.647" y2="-56.855" xlink:href="#e"/><linearGradient id="df" x1="30.172" y1="46.302" x2="-25.016" y2="-38.887" xlink:href="#e"/><linearGradient id="dg" x1="34.319" y1="52.717" x2="-23.383" y2="-36.375" xlink:href="#e"/><linearGradient id="dh" x1="44.011" y1="67.681" x2="-4.472" y2="-7.177" xlink:href="#e"/><linearGradient id="di" x1="526.258" y1="812.28" x2="-25.905" y2="-40.269" xlink:href="#e"/><linearGradient id="dj" x1="61.534" y1="94.736" x2="0.729" y2="0.854" xlink:href="#e"/><linearGradient id="dk" x1="71.077" y1="109.47" x2="0.544" y2="0.568" xlink:href="#e"/><linearGradient id="dl" x1="65.961" y1="101.571" x2="-12.008" y2="-18.812" xlink:href="#e"/><linearGradient id="dm" x1="31.712" y1="48.691" x2="-16.057" y2="-25.064" xlink:href="#e"/><linearGradient id="dn" x1="28.043" y1="43.026" x2="-17.964" y2="-28.009" xlink:href="#e"/><linearGradient id="do" x1="37.982" y1="58.372" x2="-38.146" y2="-59.17" xlink:href="#e"/><linearGradient id="dp" x1="32.483" y1="49.881" x2="-25.978" y2="-40.382" xlink:href="#e"/><linearGradient id="dq" x1="33.128" y1="50.878" x2="-21.66" y2="-33.716" xlink:href="#e"/><linearGradient id="dr" x1="19.37" y1="29.635" x2="-19.202" y2="-29.92" xlink:href="#e"/><linearGradient id="ds" x1="30.177" y1="46.307" x2="-38.127" y2="-59.123" xlink:href="#e"/><linearGradient id="dt" x1="21.582" y1="33.051" x2="-17.402" y2="-27.14" xlink:href="#e"/><linearGradient id="du" x1="37.571" y1="57.738" x2="-48.373" y2="-74.961" xlink:href="#e"/><linearGradient id="dv" x1="36.311" y1="55.792" x2="-3.732" y2="-6.034" xlink:href="#e"/><linearGradient id="dw" x1="37.642" y1="57.847" x2="-9.493" y2="-14.929" xlink:href="#e"/><linearGradient id="dx" x1="72.952" y1="112.365" x2="-26.281" y2="-40.85" xlink:href="#e"/><linearGradient id="dy" x1="35.138" y1="53.981" x2="-16.148" y2="-25.204" xlink:href="#e"/><linearGradient id="dz" x1="36.195" y1="55.613" x2="-16.903" y2="-26.37" xlink:href="#e"/><linearGradient id="ea" x1="28.513" y1="43.752" x2="-16.851" y2="-26.29" xlink:href="#e"/><linearGradient id="eb" x1="58.949" y1="90.745" x2="-19.751" y2="-30.767" xlink:href="#e"/><linearGradient id="ec" x1="79.102" y1="121.861" x2="-19.469" y2="-30.332" xlink:href="#e"/><linearGradient id="ed" x1="177.024" y1="273.302" x2="-30.895" y2="-48.018" xlink:href="#e"/><linearGradient id="ee" x1="42.979" y1="66.088" x2="-7.241" y2="-11.452" xlink:href="#e"/><linearGradient id="ef" x1="45.564" y1="70.079" x2="-15.371" y2="-24.004" xlink:href="#e"/><linearGradient id="eg" x1="70.802" y1="109.047" x2="-18.06" y2="-28.158" xlink:href="#e"/><linearGradient id="eh" x1="80.043" y1="123.314" x2="-28.435" y2="-44.176" xlink:href="#e"/><linearGradient id="ei" x1="40.916" y1="62.919" x2="-23.549" y2="-36.642" xlink:href="#e"/><linearGradient id="ej" x1="31.009" y1="47.605" x2="-13.747" y2="-21.497" xlink:href="#e"/><linearGradient id="ek" x1="23.978" y1="36.749" x2="-17.507" y2="-27.303" xlink:href="#e"/><linearGradient id="el" x1="28.453" y1="43.645" x2="-54.35" y2="-84.159" xlink:href="#e"/><linearGradient id="em" x1="31.753" y1="48.769" x2="-39.153" y2="-60.744" xlink:href="#e"/><linearGradient id="en" x1="14.521" y1="22.149" x2="-21.8" y2="-33.932" xlink:href="#e"/><linearGradient id="eo" x1="26.069" y1="39.978" x2="-40.709" y2="-63.127" xlink:href="#e"/><linearGradient id="ep" x1="15.132" y1="23.092" x2="-29.456" y2="-45.752" xlink:href="#e"/><linearGradient id="eq" x1="9.747" y1="14.775" x2="-23.687" y2="-36.838" xlink:href="#e"/><linearGradient id="er" x1="46.637" y1="71.715" x2="-20.735" y2="-32.277" xlink:href="#e"/><linearGradient id="es" x1="26.564" y1="40.743" x2="-14.597" y2="-22.809" xlink:href="#e"/><linearGradient id="et" x1="25.086" y1="38.461" x2="-14.327" y2="-22.393" xlink:href="#e"/><linearGradient id="eu" x1="61.479" y1="94.652" x2="-45.677" y2="-70.796" xlink:href="#e"/><linearGradient id="ev" x1="25.221" y1="38.679" x2="-28.201" y2="-43.825" xlink:href="#e"/><linearGradient id="ew" x1="18.585" y1="28.423" x2="-16.363" y2="-25.536" xlink:href="#e"/><linearGradient id="ex" x1="18.097" y1="27.67" x2="-43.432" y2="-67.331" xlink:href="#e"/><linearGradient id="ey" x1="13.709" y1="20.898" x2="-33.513" y2="-52.027" xlink:href="#e"/><linearGradient id="ez" x1="11.286" y1="17.154" x2="-35.995" y2="-55.848" xlink:href="#e"/><linearGradient id="fa" x1="185.72" y1="286.484" x2="-81.075" y2="-125.455" xlink:href="#e"/><linearGradient id="fb" x1="57.126" y1="87.898" x2="-24.81" y2="-38.565" xlink:href="#e"/><linearGradient id="fc" x1="20.922" y1="32.031" x2="-11.169" y2="-17.518" xlink:href="#e"/><linearGradient id="fd" x1="31.238" y1="47.96" x2="-21.897" y2="-34.081" xlink:href="#e"/><linearGradient id="fe" x1="27.357" y1="41.967" x2="-19.322" y2="-30.105" xlink:href="#e"/><linearGradient id="ff" x1="21.749" y1="33.308" x2="-19.065" y2="-29.708" xlink:href="#e"/><linearGradient id="fg" x1="17.685" y1="27.041" x2="-41.751" y2="-64.753" xlink:href="#e"/><linearGradient id="fh" x1="12.925" y1="19.689" x2="-40.801" y2="-63.284" xlink:href="#e"/><linearGradient id="fi" x1="76.138" y1="16.008" x2="5.549" y2="1.535" xlink:href="#e"/><linearGradient id="fj" x1="4.623" y1="8.381" x2="-0.461" y2="-1.562" xlink:href="#e"/><linearGradient id="fk" x1="4.329" y1="7.806" x2="-0.755" y2="-2.137" xlink:href="#e"/><linearGradient id="fl" x1="4.035" y1="7.23" x2="-1.049" y2="-2.713" xlink:href="#e"/><linearGradient id="fm" x1="4.341" y1="6.821" x2="-1.897" y2="-3.122" xlink:href="#e"/><linearGradient id="fo" x1="3.512" y1="4.527" x2="-1.572" y2="-2.271" xlink:href="#e"/><linearGradient id="fp" x1="9.514" y1="5.082" x2="-6.509" y2="-3.236" xlink:href="#e"/><linearGradient id="fq" x1="3.266" y1="4.198" x2="-1.819" y2="-2.601" xlink:href="#e"/><linearGradient id="fr" x1="3.595" y1="3.827" x2="-2.642" y2="-2.971" xlink:href="#e"/><linearGradient id="fs" x1="7.808" y1="6.176" x2="-1.114" y2="-0.622" xlink:href="#e"/><linearGradient id="fu" x1="7.034" y1="3.795" x2="-8.988" y2="-4.523" xlink:href="#e"/><linearGradient id="fv" x1="54.532" y1="9.629" x2="-16.057" y2="-2.256" xlink:href="#e"/><linearGradient id="fw" x1="4.244" y1="5.506" x2="-0.84" y2="-1.292" xlink:href="#e"/><linearGradient id="fx" x1="3.95" y1="5.113" x2="-1.134" y2="-1.686" xlink:href="#e"/><linearGradient id="fy" x1="3.656" y1="4.72" x2="-1.429" y2="-2.079" xlink:href="#e"/><linearGradient id="fz" x1="6.427" y1="5.124" x2="-2.495" y2="-1.675" xlink:href="#e"/><linearGradient id="ga" x1="3.704" y1="4.784" x2="-1.381" y2="-2.015" xlink:href="#e"/><linearGradient id="gc" x1="43.607" y1="7.789" x2="-26.982" y2="-4.096" xlink:href="#e"/><linearGradient id="gd" x1="3.457" y1="4.454" x2="-1.627" y2="-2.344" xlink:href="#e"/><linearGradient id="ge" x1="3.163" y1="4.061" x2="-1.921" y2="-2.738" xlink:href="#e"/><linearGradient id="gf" x1="2.869" y1="3.667" x2="-2.216" y2="-3.131" xlink:href="#e"/><linearGradient id="gg" x1="1.692" y1="2.094" x2="-3.392" y2="-4.705" xlink:href="#e"/><linearGradient id="gh" x1="1.664" y1="1.723" x2="-4.573" y2="-5.075" xlink:href="#e"/><linearGradient id="gi" x1="5.474" y1="9.938" x2="-3.448" y2="-7.232" xlink:href="#e"/><linearGradient id="gj" x1="3.01" y1="9.292" x2="-2.074" y2="-7.878" xlink:href="#e"/><linearGradient id="gk" x1="2.716" y1="8.298" x2="-2.369" y2="-8.872" xlink:href="#e"/><linearGradient id="gl" x1="2.421" y1="7.305" x2="-2.663" y2="-9.866" xlink:href="#e"/><linearGradient id="gm" x1="1.245" y1="3.33" x2="-3.84" y2="-13.84" xlink:href="#e"/><linearGradient id="gn" x1="2.369" y1="3.103" x2="-13.654" y2="-19.216" xlink:href="#e"/><linearGradient id="go" x1="3.159" y1="5.835" x2="-0.693" y2="-2.175" xlink:href="#e"/><linearGradient id="gp" x1="5.031" y1="5.528" x2="-2.633" y2="-2.483" xlink:href="#e"/><linearGradient id="gq" x1="66.793" y1="9.533" x2="-1.307" y2="0.28" xlink:href="#e"/><linearGradient id="gr" x1="4.105" y1="5.321" x2="0.254" y2="0.171" xlink:href="#e"/><linearGradient id="gs" x1="181.849" y1="5.754" x2="-165.587" y2="-4.322" xlink:href="#e"/><linearGradient id="gt" x1="6.405" y1="4.94" x2="-0.623" y2="-0.21" xlink:href="#e"/><linearGradient id="gv" x1="53.057" y1="7.666" x2="-15.042" y2="-1.586" xlink:href="#e"/><linearGradient id="gw" x1="3.329" y1="4.282" x2="-0.523" y2="-0.867" xlink:href="#e"/><linearGradient id="gx" x1="1.886" y1="2.341" x2="-1.988" y2="-2.809" xlink:href="#e"/><linearGradient id="gy" x1="4.987" y1="3.901" x2="-2.04" y2="-1.248" xlink:href="#e"/><linearGradient id="gz" x1="2.795" y1="3.569" x2="-1.056" y2="-1.581" xlink:href="#e"/><linearGradient id="ha" x1="1.633" y1="2.015" x2="-2.218" y2="-3.135" xlink:href="#e"/><linearGradient id="hb" x1="2.453" y1="1.688" x2="-5.21" y2="-3.461" xlink:href="#e"/><linearGradient id="hc" x1="39.974" y1="6.834" x2="-28.126" y2="-4.138" xlink:href="#e"/><linearGradient id="hd" x1="2.567" y1="4.681" x2="-1.284" y2="-2.771" xlink:href="#e"/><linearGradient id="he" x1="2.277" y1="4.119" x2="-1.574" y2="-3.333" xlink:href="#e"/><linearGradient id="hf" x1="1.986" y1="3.557" x2="-1.865" y2="-3.895" xlink:href="#e"/><linearGradient id="hg" x1="1.696" y1="2.995" x2="-2.155" y2="-4.457" xlink:href="#e"/><linearGradient id="hh" x1="1.405" y1="2.433" x2="-2.446" y2="-5.019" xlink:href="#e"/><linearGradient id="hi" x1="1.12" y1="1.872" x2="-2.754" y2="-5.58" xlink:href="#e"/><linearGradient id="hj" x1="43.094" y1="1.914" x2="-304.342" y2="-9.617" xlink:href="#e"/><linearGradient id="hk" x1="47.887" y1="73.677" x2="2.717" y2="3.923" xlink:href="#e"/><linearGradient id="hl" x1="40.529" y1="62.305" x2="-8.431" y2="-13.289" xlink:href="#e"/><linearGradient id="hm" x1="39.705" y1="61.044" x2="-11.9" y2="-18.649" xlink:href="#e"/><linearGradient id="hn" x1="58.144" y1="89.501" x2="-23.622" y2="-36.744" xlink:href="#e"/><linearGradient id="ho" x1="28.356" y1="43.509" x2="-18.918" y2="-29.481" xlink:href="#e"/><linearGradient id="hp" x1="26.32" y1="40.367" x2="-13.775" y2="-21.541" xlink:href="#e"/><linearGradient id="hq" x1="47.395" y1="72.905" x2="-14.078" y2="-22.008" xlink:href="#e"/><linearGradient id="hr" x1="54.012" y1="83.123" x2="-22.233" y2="-34.6" xlink:href="#e"/><linearGradient id="hs" x1="46.55" y1="71.601" x2="-24.612" y2="-38.273" xlink:href="#e"/><linearGradient id="ht" x1="30.168" y1="46.308" x2="-25.012" y2="-38.891" xlink:href="#e"/><linearGradient id="hu" x1="65.966" y1="101.579" x2="-12.009" y2="-18.814" xlink:href="#e"/><linearGradient id="hv" x1="31.715" y1="48.696" x2="-16.058" y2="-25.066" xlink:href="#e"/><linearGradient id="hw" x1="28.04" y1="43.022" x2="-17.962" y2="-28.006" xlink:href="#e"/><linearGradient id="hx" x1="37.982" y1="58.371" x2="-38.146" y2="-59.169" xlink:href="#e"/><linearGradient id="hy" x1="32.484" y1="49.884" x2="-25.98" y2="-40.384" xlink:href="#e"/><linearGradient id="hz" x1="33.128" y1="50.877" x2="-21.66" y2="-33.716" xlink:href="#e"/><linearGradient id="ia" x1="19.37" y1="29.635" x2="-19.202" y2="-29.92" xlink:href="#e"/><linearGradient id="ib" x1="30.17" y1="46.311" x2="-38.119" y2="-59.128" xlink:href="#e"/><linearGradient id="ic" x1="21.581" y1="33.054" x2="-17.4" y2="-27.142" xlink:href="#e"/><linearGradient id="id" x1="36.308" y1="55.796" x2="-3.732" y2="-6.035" xlink:href="#e"/><linearGradient id="ie" x1="37.644" y1="57.84" x2="-9.493" y2="-14.927" xlink:href="#e"/><linearGradient id="if" x1="72.942" y1="112.391" x2="-26.277" y2="-40.859" xlink:href="#e"/><linearGradient id="ig" x1="35.134" y1="53.975" x2="-16.146" y2="-25.201" xlink:href="#e"/><linearGradient id="ih" x1="36.195" y1="55.602" x2="-16.903" y2="-26.365" xlink:href="#e"/><linearGradient id="ii" x1="28.511" y1="43.749" x2="-16.85" y2="-26.288" xlink:href="#e"/><linearGradient id="ij" x1="45.571" y1="70.074" x2="-15.373" y2="-24.003" xlink:href="#e"/><linearGradient id="ik" x1="70.79" y1="109.028" x2="-18.057" y2="-28.153" xlink:href="#e"/><linearGradient id="il" x1="80.054" y1="123.331" x2="-28.439" y2="-44.182" xlink:href="#e"/><linearGradient id="im" x1="40.932" y1="62.913" x2="-23.559" y2="-36.638" xlink:href="#e"/><linearGradient id="in" x1="31.013" y1="47.604" x2="-13.749" y2="-21.497" xlink:href="#e"/><linearGradient id="io" x1="23.977" y1="36.748" x2="-17.507" y2="-27.302" xlink:href="#e"/><linearGradient id="ip" x1="28.451" y1="43.656" x2="-54.345" y2="-84.181" xlink:href="#e"/><linearGradient id="iq" x1="31.758" y1="48.762" x2="-39.16" y2="-60.734" xlink:href="#e"/><linearGradient id="ir" x1="14.52" y1="22.147" x2="-21.798" y2="-33.929" xlink:href="#e"/><linearGradient id="is" x1="26.068" y1="39.976" x2="-40.708" y2="-63.124" xlink:href="#e"/><linearGradient id="it" x1="46.635" y1="71.732" x2="-20.734" y2="-32.285" xlink:href="#e"/><linearGradient id="iu" x1="26.566" y1="40.746" x2="-14.598" y2="-22.811" xlink:href="#e"/><linearGradient id="iv" x1="25.086" y1="38.461" x2="-14.327" y2="-22.393" xlink:href="#e"/><linearGradient id="iw" x1="61.482" y1="94.656" x2="-45.678" y2="-70.8" xlink:href="#e"/><linearGradient id="ix" x1="25.222" y1="38.671" x2="-28.202" y2="-43.815" xlink:href="#e"/><linearGradient id="iy" x1="18.586" y1="28.421" x2="-16.364" y2="-25.534" xlink:href="#e"/><linearGradient id="iz" x1="18.097" y1="27.669" x2="-43.43" y2="-67.328" xlink:href="#e"/><linearGradient id="ja" x1="13.709" y1="20.895" x2="-33.516" y2="-52.02" xlink:href="#e"/><linearGradient id="jb" x1="11.288" y1="17.157" x2="-36.002" y2="-55.859" xlink:href="#e"/><linearGradient id="jc" x1="22.174" y1="32.028" x2="-11.933" y2="-17.517" xlink:href="#e"/><linearGradient id="jd" x1="39.901" y1="61.335" x2="-34.434" y2="-53.437" xlink:href="#e"/><linearGradient id="je" x1="20.328" y1="31.115" x2="-17.303" y2="-26.988" xlink:href="#e"/><linearGradient id="jf" x1="31.241" y1="47.964" x2="-21.898" y2="-34.083" xlink:href="#e"/><linearGradient id="jg" x1="27.355" y1="41.971" x2="-19.321" y2="-30.108" xlink:href="#e"/><linearGradient id="jh" x1="21.748" y1="33.307" x2="-19.065" y2="-29.708" xlink:href="#e"/><linearGradient id="ji" x1="22.012" y1="33.715" x2="-29.912" y2="-46.455" xlink:href="#e"/><linearGradient id="jj" x1="20.718" y1="31.717" x2="-28.455" y2="-44.206" xlink:href="#e"/><linearGradient id="jk" x1="17.687" y1="27.037" x2="-41.755" y2="-64.741" xlink:href="#e"/><linearGradient id="jl" x1="12.925" y1="19.685" x2="-40.802" y2="-63.27" xlink:href="#e"/><linearGradient id="jm" x1="58.439" y1="89.958" x2="-40.639" y2="-63.019" xlink:href="#e"/><linearGradient id="jn" x1="19.094" y1="29.214" x2="-20.286" y2="-31.598" xlink:href="#e"/><linearGradient id="jo" x1="41.768" y1="64.218" x2="-46.217" y2="-71.631" xlink:href="#e"/><linearGradient id="jp" x1="24.22" y1="37.123" x2="-42.328" y2="-65.625" xlink:href="#e"/><linearGradient id="jq" x1="13.111" y1="19.971" x2="-39.977" y2="-61.996" xlink:href="#e"/><linearGradient id="jr" x1="17.904" y1="27.372" x2="-77.293" y2="-119.612" xlink:href="#e"/><linearGradient id="js" x1="9.682" y1="14.677" x2="-41.419" y2="-64.223" xlink:href="#e"/><linearGradient id="jt" x1="5.893" y1="8.826" x2="-37.271" y2="-57.809" xlink:href="#e"/></defs><g class="c"><g transform="translate(-416.14 -52.018)"><g transform="translate(17.14 52.018)"><rect class="b" width="1117" height="812"/><g class="d" transform="translate(0 0)"><g class="e" transform="translate(-56.825 -97.937)"><g transform="translate(78.207 116.388)"><g transform="translate(564.365 0)"><path class="f" d="M287.783,204l-.135-.079L224.8,167.643V94.92l.135-.079,62.844-36.282.135.079L350.763,94.92v72.722l-.135.079Zm-62.435-36.674,62.435,36.045,62.435-36.045V95.236L287.783,59.188,225.347,95.236Z" transform="translate(-224.803 -58.559)"/></g><g transform="translate(689.78 0)"><path class="g" d="M332.246,204l-.135-.079-62.844-36.282V94.92l.135-.079,62.844-36.282.135.079L395.226,94.92v72.722l-.135.079ZM269.81,167.329l62.435,36.045,62.435-36.045V95.236L332.246,59.188,269.81,95.236Z" transform="translate(-269.266 -58.559)"/></g><g transform="translate(815.195 0)"><path class="h" d="M376.709,204l-.135-.079-62.844-36.282V94.92l.135-.079,62.844-36.282.135.079L439.689,94.92v72.722l-.135.079Zm-62.435-36.674,62.435,36.045,62.435-36.045V95.236L376.709,59.188,314.273,95.236Z" transform="translate(-313.729 -58.559)"/></g><g transform="translate(940.61 0)"><path class="i" d="M421.172,204l-.135-.079-62.844-36.282V94.92l.135-.079,62.844-36.282.135.079L484.149,94.92v72.722l-.135.079Zm-62.435-36.674,62.435,36.045L483.6,167.329V95.236L421.172,59.188,358.736,95.236Z" transform="translate(-358.192 -58.559)"/></g><g transform="translate(1066.023)"><path class="j" d="M481.03,194.487l-15.4,8.888L403.2,167.329V95.235l62.435-36.046,15.4,8.888v-.629l-15.259-8.81-.137-.079L402.79,94.841l-.136.079v72.723L465.5,203.926l.136.079,15.4-8.888Z" transform="translate(-402.654 -58.559)"/></g><g transform="translate(0.001 108.613)"><path class="k" d="M87.7,242.51l-.138-.079L24.721,206.148V133.426l.135-.079L87.7,97.065l.135.079,62.844,36.282v72.722l-.138.079ZM25.265,205.835,87.7,241.881l62.435-36.045V133.742L87.7,97.694,25.265,133.742Z" transform="translate(-24.721 -97.065)"/></g><g transform="translate(627.074 108.613)"><path class="l" d="M310.015,242.51l-.138-.079-62.842-36.282V133.426l.135-.079,62.844-36.282.135.079,62.844,36.282v72.722l-.138.079Zm-62.435-36.674,62.435,36.045,62.435-36.045V133.742L310.015,97.694l-62.435,36.048Z" transform="translate(-247.035 -97.065)"/></g><g transform="translate(752.489 108.613)"><path class="m" d="M354.478,242.51l-.138-.079L291.5,206.148V133.426l.135-.079,62.844-36.282.135.079,62.844,36.282v72.722l-.138.079Zm-62.435-36.674,62.435,36.045,62.433-36.045V133.742L354.478,97.694l-62.435,36.048Z" transform="translate(-291.498 -97.065)"/></g><g transform="translate(877.901 108.613)"><path class="n" d="M398.94,242.51l-.135-.079L335.96,206.148V133.426l.138-.079L398.94,97.065l.138.079,62.842,36.282v72.722l-.135.079Zm-62.433-36.674,62.433,36.045,62.435-36.045V133.742L398.94,97.694l-62.433,36.048Z" transform="translate(-335.96 -97.065)"/></g><g transform="translate(1003.316 108.613)"><path class="o" d="M443.4,242.51l-.138-.079-62.842-36.282V133.426l.138-.079L443.4,97.065l.135.079,62.844,36.282v72.722l-.138.079Zm-62.435-36.674L443.4,241.881l62.435-36.045V133.742L443.4,97.694l-62.435,36.048Z" transform="translate(-380.423 -97.065)"/></g><g transform="translate(1128.73 135.928)"><path class="p" d="M440.553,196.935,425.43,188.2V116.11l15.123-8.731v-.629l-15.532,8.967-.136.079v72.723l15.668,9.046Z" transform="translate(-424.886 -106.749)"/></g><g transform="translate(815.195 217.225)"><path class="q" d="M376.709,281.016l-.135-.079-62.844-36.282V171.932l.135-.079,62.844-36.282.135.079,62.844,36.282v72.722l-.135.079Zm-62.435-36.674,62.435,36.045,62.435-36.045v-72.1L376.709,136.2l-62.435,36.045Z" transform="translate(-313.729 -135.571)"/></g><g transform="translate(940.61 217.225)"><path class="r" d="M421.172,281.016l-.135-.079-62.844-36.282V171.932l.135-.079,62.844-36.282.135.079,62.842,36.282v72.722l-.135.079Zm-62.435-36.674,62.435,36.045L483.6,244.341v-72.1L421.172,136.2l-62.435,36.045Z" transform="translate(-358.192 -135.571)"/></g><g transform="translate(1066.023 217.225)"><path class="s" d="M481.03,271.5l-15.4,8.888L403.2,244.341V172.247L465.634,136.2l15.4,8.888v-.629l-15.259-8.81-.137-.079L402.79,171.853l-.136.079v72.723L465.5,280.938l.136.079,15.4-8.888Z" transform="translate(-402.654 -135.571)"/></g><g transform="translate(877.901 325.838)"><path class="t" d="M398.94,319.522l-.135-.079L335.96,283.16V210.438l.138-.079,62.842-36.282.138.079,62.842,36.282V283.16l-.135.079Zm-62.433-36.674,62.433,36.045,62.435-36.045v-72.1L398.94,174.706l-62.433,36.045Z" transform="translate(-335.96 -174.077)"/></g><g transform="translate(1003.316 325.838)"><path class="u" d="M443.4,319.522l-.138-.079L380.423,283.16V210.438l.138-.079L443.4,174.077l.135.079,62.844,36.282V283.16l-.138.079Zm-62.435-36.674L443.4,318.893l62.435-36.045v-72.1L443.4,174.706l-62.435,36.045Z" transform="translate(-380.423 -174.077)"/></g><g transform="translate(1128.73 353.152)"><path class="v" d="M440.553,273.946l-15.123-8.731V193.122l15.123-8.731v-.629l-15.532,8.967-.136.078V265.53l15.668,9.046Z" transform="translate(-424.886 -183.761)"/></g><g transform="translate(62.707 434.45)"><path class="w" d="M109.932,358.028l-.135-.079L46.952,321.667V248.944l.135-.079,62.844-36.282.135.079,62.842,36.282v72.722l-.135.079ZM47.5,321.351,109.932,357.4l62.433-36.048V249.257l-62.433-36.045L47.5,249.257Z" transform="translate(-46.952 -212.583)"/></g><g transform="translate(940.61 434.45)"><path class="x" d="M421.172,358.028l-.135-.079-62.844-36.282V248.944l.135-.079,62.844-36.282.135.079,62.842,36.282v72.722l-.135.079Zm-62.435-36.677L421.172,357.4,483.6,321.351V249.257l-62.433-36.045-62.435,36.045Z" transform="translate(-358.192 -212.583)"/></g><g transform="translate(1066.023 434.449)"><path class="y" d="M481.03,348.51l-15.4,8.888L403.2,321.352V249.259l62.435-36.046,15.4,8.888v-.629l-15.259-8.81-.137-.079L402.79,248.865l-.136.078v72.723L465.5,357.95l.136.079,15.4-8.888Z" transform="translate(-402.654 -212.583)"/></g><g transform="translate(0.001 543.063)"><path class="z" d="M87.7,396.534l-.138-.079L24.721,360.173V287.45l.135-.079L87.7,251.089l.135.079,62.844,36.282v72.722l-.138.079ZM25.265,359.857,87.7,395.9l62.435-36.048V287.763L87.7,251.718,25.265,287.763Z" transform="translate(-24.721 -251.089)"/></g><g transform="translate(125.416 543.063)"><path class="aa" d="M132.161,396.534l-.135-.079L69.184,360.173V287.45l.135-.079,62.842-36.282.135.079,62.844,36.282v72.722l-.135.079ZM69.728,359.857,132.161,395.9,194.6,359.857V287.763l-62.435-36.045L69.728,287.763Z" transform="translate(-69.184 -251.089)"/></g><g transform="translate(250.828 543.063)"><path class="ab" d="M176.626,396.534l-.135-.079-62.844-36.282V287.45l.135-.079,62.844-36.282.135.079,62.844,36.282v72.722l-.135.079ZM114.19,359.857,176.626,395.9l62.435-36.048V287.763l-62.435-36.045L114.19,287.763Z" transform="translate(-113.646 -251.089)"/></g><g transform="translate(376.243 543.063)"><path class="ac" d="M221.089,396.534l-.138-.079-62.842-36.282V287.45l.135-.079,62.844-36.282.135.079,62.844,36.282v72.722l-.138.079Zm-62.435-36.677L221.089,395.9l62.435-36.048V287.763l-62.435-36.045-62.435,36.045Z" transform="translate(-158.109 -251.089)"/></g><g transform="translate(1128.73 570.377)"><path class="ad" d="M440.553,350.958l-15.123-8.731V270.133l15.123-8.731v-.63l-15.532,8.967-.136.079v72.723l15.668,9.046Z" transform="translate(-424.886 -260.773)"/></g><g transform="translate(62.707 651.675)"><path class="ae" d="M109.932,435.04l-.135-.079L46.952,398.679V325.956l.135-.079,62.844-36.282.135.079,62.842,36.282v72.722l-.135.079ZM47.5,398.363l62.435,36.048,62.433-36.048V326.269l-62.433-36.045L47.5,326.269Z" transform="translate(-46.952 -289.595)"/></g><g transform="translate(188.119 651.675)"><path class="af" d="M154.394,435.04l-.135-.079L91.414,398.679V325.956l.138-.079,62.842-36.282.138.079,62.842,36.282v72.722l-.135.079ZM91.958,398.363l62.435,36.048,62.435-36.048V326.269l-62.435-36.045L91.958,326.269Z" transform="translate(-91.414 -289.595)"/></g><g transform="translate(313.535 651.675)"><path class="ag" d="M198.857,435.04l-.135-.079-62.844-36.282V325.956l.138-.079,62.842-36.282.138.079,62.842,36.282v72.722l-.135.079Zm-62.435-36.677,62.435,36.048,62.435-36.048V326.269l-62.435-36.045-62.435,36.045Z" transform="translate(-135.877 -289.595)"/></g><g transform="translate(0 760.286)"><path class="ah" d="M25.265,405.515V364.776L87.7,328.73l62.435,36.046v40.739h.545V364.462L87.836,328.179,87.7,328.1,24.857,364.383l-.136.079v41.054Z" transform="translate(-24.721 -328.101)"/></g><g transform="translate(125.415 760.286)"><path class="ai" d="M69.728,405.515V364.776l62.433-36.046L194.6,364.776v40.739h.544V364.462L132.3,328.179l-.137-.079L69.32,364.383l-.136.079v41.054Z" transform="translate(-69.184 -328.101)"/></g><g transform="translate(250.828 760.286)"><path class="aj" d="M114.19,405.515V364.776l62.435-36.046,62.436,36.046v40.739h.544V364.462l-62.844-36.283-.136-.079-62.844,36.282-.136.079v41.054Z" transform="translate(-113.646 -328.101)"/></g><g transform="translate(376.243 760.286)"><path class="ak" d="M158.653,405.515V364.776l62.436-36.046,62.435,36.046v40.739h.544V364.462l-62.844-36.283-.136-.079-62.844,36.282-.136.079v41.054Z" transform="translate(-158.109 -328.101)"/></g><g transform="translate(877.903 760.286)"><path class="al" d="M336.505,405.515V364.776L398.94,328.73l62.435,36.046v40.739h.545V364.462l-62.843-36.283-.136-.079L336.1,364.383l-.136.079v41.054Z" transform="translate(-335.961 -328.101)"/></g><g transform="translate(1003.318 760.286)"><path class="am" d="M380.968,405.515V364.776L443.4,328.73l62.435,36.046v40.739h.545V364.462l-62.844-36.283-.137-.079-62.842,36.282-.136.079v41.054Z" transform="translate(-380.423 -328.101)"/></g></g><g transform="translate(773.734)"><path class="an" d="M434.753,17.3V78.989l-80.305,46.364L274.143,78.989V17.3H271.3V80.628l83.145,48,83.144-48V17.3Z" transform="translate(-271.304 -17.296)"/></g><g transform="translate(937.184)"><path class="ao" d="M492.7,17.3V78.989l-80.3,46.364L332.09,78.989V17.3h-2.839V80.628l83.145,48,83.144-48V17.3Z" transform="translate(-329.251 -17.296)"/></g><g transform="translate(1100.634)"><path class="ap" d="M390.037,78.989V17.3H387.2V80.628l83.142,48,38.829-22.418v-3.277L470.34,125.353Z" transform="translate(-387.198 -17.296)"/></g><g transform="translate(855.459 60.875)"><path class="aq" d="M383.422,230.889l-83.145-48V86.88l83.145-48,83.145,48v96.007Zm-80.3-49.641,80.3,46.363,80.307-46.363V88.519L383.422,42.153l-80.3,46.366Z" transform="translate(-300.277 -38.878)"/></g><g transform="translate(1018.91 60.875)"><path class="ar" d="M441.367,230.889l-83.142-48V86.88l83.142-48,83.142,48v96.007Zm-80.3-49.641,80.3,46.363,80.3-46.363V88.519l-80.3-46.366-80.3,46.366Z" transform="translate(-358.225 -38.878)"/></g><g transform="translate(1182.357 85.639)"><path class="as" d="M456.419,186.861l-37.41-21.6V72.533l37.41-21.6V47.657L416.171,70.895V166.9l40.248,23.237Z" transform="translate(-416.171 -47.657)"/></g><g transform="translate(937.185 202.425)"><path class="at" d="M412.4,281.072l-83.145-48V137.063l83.145-48,83.145,48V233.07Zm-80.307-49.641L412.4,277.8l80.3-46.366V138.7L412.4,92.339,332.089,138.7Z" transform="translate(-329.251 -89.061)"/></g><g transform="translate(1100.634 202.425)"><path class="au" d="M509.17,255.378,470.34,277.8l-80.3-46.364V138.7l80.3-46.364,38.829,22.418v-3.277L470.34,89.061l-83.142,48V233.07l83.142,48,38.829-22.418Z" transform="translate(-387.198 -89.061)"/></g><g transform="translate(0 368.279)"><path class="av" d="M-3.006,147.861v3.277L35.2,173.2v92.73L-3.006,287.99v3.277l41.049-23.7V171.561Z" transform="translate(3.006 -147.861)"/></g><g transform="translate(38.211 343.977)"><path class="aw" d="M93.686,331.256l-83.145-48V187.247l83.145-48,83.142,48v96.007ZM13.379,281.615l80.307,46.363,80.3-46.363V188.886l-80.3-46.363L13.379,188.886Z" transform="translate(-10.541 -139.245)"/></g><g transform="translate(201.66 343.977)"><path class="ax" d="M151.633,331.256l-83.145-48V187.247l83.145-48,83.145,48v96.007ZM71.326,281.615l80.307,46.363,80.3-46.363V188.886l-80.3-46.363L71.326,188.886Z" transform="translate(-68.488 -139.245)"/></g><g transform="translate(1182.357 368.742)"><path class="ay" d="M456.419,287.229l-37.41-21.6V172.9l37.41-21.6v-3.277l-40.248,23.237v96.007l40.248,23.237Z" transform="translate(-416.171 -148.025)"/></g><g transform="translate(0 485.528)"><path class="az" d="M36.624,189.429l-39.63,22.88v3.277l39.63-22.881,80.305,46.364V331.8L36.624,378.164l-39.63-22.881v3.277l39.63,22.881,83.144-48V237.431Z" transform="translate(3.006 -189.429)"/></g><g transform="translate(119.934 485.529)"><path class="ba" d="M122.659,381.44l-83.145-48V237.431l83.145-48,83.145,48v96.007ZM42.354,331.8l80.3,46.363L202.966,331.8V239.07L122.659,192.7l-80.3,46.366Z" transform="translate(-39.514 -189.429)"/></g><g transform="translate(283.386 485.529)"><path class="bb" d="M180.607,381.44l-83.145-48V237.431l83.145-48,83.142,48v96.007ZM100.3,331.8l80.307,46.363,80.3-46.363V239.07l-80.3-46.366L100.3,239.07Z" transform="translate(-97.462 -189.429)"/></g><g transform="translate(0 651.382)"><path class="bc" d="M-3.006,248.228v3.277L35.2,273.567V366.3l-38.21,22.061v3.277l41.049-23.7V271.928Z" transform="translate(3.006 -248.228)"/></g><g transform="translate(38.211 627.078)"><path class="bd" d="M93.686,431.626l-83.145-48V287.617l83.145-48,83.142,48v96.007ZM13.379,381.985l80.307,46.363,80.3-46.363V289.256l-80.3-46.366L13.379,289.256Z" transform="translate(-10.541 -239.612)"/></g><g transform="translate(201.66 627.078)"><path class="be" d="M151.633,431.626l-83.145-48V287.617l83.145-48,83.145,48v96.007ZM71.326,381.985l80.307,46.363,80.3-46.363V289.256l-80.3-46.366L71.326,289.256Z" transform="translate(-68.488 -239.612)"/></g><g transform="translate(1018.91 627.078)"><path class="bf" d="M441.367,431.626l-83.142-48V287.617l83.142-48,83.142,48v96.007Zm-80.3-49.641,80.3,46.363,80.3-46.363V289.256l-80.3-46.366-80.3,46.366Z" transform="translate(-358.225 -239.612)"/></g><g transform="translate(0 768.631)"><path class="bg" d="M-3.006,351.873,25.274,368.2h5.675L-3.006,348.6Z" transform="translate(3.006 -182.742)"/><path class="bh" d="M36.624,289.8l-39.63,22.881v3.277l39.63-22.881,80.305,46.364v92.73L42.3,475.255h5.675l71.794-41.449V337.8Z" transform="translate(3.006 -289.796)"/></g><g transform="translate(119.935 768.631)"><path class="bi" d="M116.984,475.255,42.353,432.167v-92.73l80.306-46.364,80.305,46.364v92.73l-74.63,43.088h5.675L205.8,433.805V337.8l-83.144-48-83.145,48v96.007l71.795,41.449Z" transform="translate(-39.514 -289.796)"/></g><g transform="translate(283.385 768.631)"><path class="bj" d="M174.932,475.255,100.3,432.167v-92.73l80.306-46.364,80.3,46.364v92.73l-74.63,43.088h5.675l71.794-41.449V337.8l-83.144-48-83.145,48v96.007l71.795,41.449Z" transform="translate(-97.462 -289.796)"/></g><g transform="translate(937.184 768.631)"><path class="bk" d="M406.721,475.255,332.09,432.167v-92.73L412.4,293.073l80.3,46.364v92.73l-74.63,43.088h5.676l71.794-41.449V337.8l-83.144-48-83.145,48v96.007l71.795,41.449Z" transform="translate(-329.251 -289.796)"/></g><g transform="translate(1100.634 768.631)"><path class="bl" d="M470.34,293.073l38.829,22.418v-3.277L470.34,289.8l-83.142,48v96.007l71.792,41.449h5.675l-74.628-43.088v-92.73Z" transform="translate(-387.198 -289.796)"/><path class="bm" d="M451.841,348.76,418.686,367.9h5.675l27.479-15.865Z" transform="translate(-329.869 -182.443)"/></g><g transform="translate(0 934.485)"><path class="bn" d="M-3.006,348.6v3.277L25.273,368.2H30.95Z" transform="translate(3.006 -348.596)"/></g><g transform="translate(45.303 910.182)"><path class="bo" d="M18.732,383.887l70.375-40.63,70.374,40.63h5.677L89.107,339.98,13.055,383.887Z" transform="translate(-13.055 -339.98)"/></g><g transform="translate(208.753 910.182)"><path class="bp" d="M76.68,383.887l70.375-40.63,70.374,40.63h5.677L147.054,339.98,71,383.887Z" transform="translate(-71.003 -339.98)"/></g><g transform="translate(372.203 910.182)"><path class="bq" d="M134.627,383.887,205,343.257l70.374,40.63h5.677L205,339.98,128.95,383.887Z" transform="translate(-128.95 -339.98)"/></g><g transform="translate(535.653 910.182)"><path class="br" d="M192.574,383.887l70.375-40.63,70.374,40.63H339L262.949,339.98,186.9,383.887Z" transform="translate(-186.897 -339.98)"/></g><g transform="translate(699.103 910.182)"><path class="bs" d="M250.522,383.887l70.375-40.63,70.374,40.63h5.677L320.9,339.98l-76.052,43.907Z" transform="translate(-244.845 -339.98)"/></g><g transform="translate(862.553 910.182)"><path class="bt" d="M308.469,383.887l70.375-40.63,70.374,40.63h5.677L378.844,339.98l-76.052,43.907Z" transform="translate(-302.792 -339.98)"/></g><g transform="translate(1026.002 910.182)"><path class="bu" d="M366.416,383.887l70.375-40.63,70.372,40.63h5.676L436.791,339.98l-76.052,43.907Z" transform="translate(-360.739 -339.98)"/></g><g transform="translate(1189.45 934.948)"><path class="bv" d="M451.841,348.76,418.686,367.9h5.676l27.479-15.865Z" transform="translate(-418.686 -348.76)"/></g><g transform="translate(73.213 111.802)"><path class="bw" d="M72.191,117.433a4.51,4.51,0,1,0-4.51-4.51A4.511,4.511,0,0,0,72.191,117.433Z" transform="translate(58.49 36.795)"/><path class="bx" d="M203.16,59.926a.763.763,0,1,0-.762-.762A.763.763,0,0,0,203.16,59.926Z" transform="translate(303.764 -54.262)"/><path class="by" d="M230.482,68.44a8.647,8.647,0,1,0,8.645,8.648A8.649,8.649,0,0,0,230.482,68.44Z" transform="translate(339.151 -35.983)"/><path class="bz" d="M228.394,106.081a5.411,5.411,0,1,0-5.413-5.41A5.412,5.412,0,0,0,228.394,106.081Z" transform="translate(341.239 12.844)"/><path class="ca" d="M250.273,118.023a4.868,4.868,0,1,0-4.868-4.868A4.869,4.869,0,0,0,250.273,118.023Z" transform="translate(382.066 36.564)"/><circle class="cb" cx="2.509" cy="2.509" r="2.509" transform="translate(629.831 2.392)"/><path class="cc" d="M272.566,79.67a4.962,4.962,0,1,0-4.962-4.962A4.961,4.961,0,0,0,272.566,79.67Z" transform="translate(422.483 -33.603)"/><path class="cd" d="M274.985,94.089a8.709,8.709,0,1,0,8.707,8.71A8.708,8.708,0,0,0,274.985,94.089Z" transform="translate(420.063 10.716)"/><path class="ce" d="M293.965,64.711a3.671,3.671,0,1,0-3.673-3.67A3.672,3.672,0,0,0,293.965,64.711Z" transform="translate(463.79 -56.139)"/><path class="cf" d="M318.193,82.641a6.767,6.767,0,1,0-6.767-6.767A6.767,6.767,0,0,0,318.193,82.641Z" transform="translate(502.268 -34.768)"/><circle class="cg" cx="8.076" cy="8.076" r="8.076" transform="translate(812.385 105.437)"/><path class="ch" d="M338.781,65.616a4.221,4.221,0,1,0-4.22-4.22A4.221,4.221,0,0,0,338.781,65.616Z" transform="translate(544.389 -56.494)"/><path class="ci" d="M361.421,79.494a4.854,4.854,0,1,0-4.854-4.854A4.854,4.854,0,0,0,361.421,79.494Z" transform="translate(584.454 -33.534)"/><circle class="cj" cx="3.461" cy="3.461" r="3.461" transform="translate(942.415 110.052)"/><path class="ck" d="M382.626,64.038a3.262,3.262,0,1,0-3.263-3.261A3.259,3.259,0,0,0,382.626,64.038Z" transform="translate(625.958 -55.875)"/><path class="cl" d="M406.068,79.963a5.139,5.139,0,1,0-5.139-5.139A5.14,5.14,0,0,0,406.068,79.963Z" transform="translate(665.222 -33.718)"/><circle class="cm" cx="5.837" cy="5.837" r="5.837" transform="translate(1065.454 107.677)"/><path class="cn" d="M428.146,66.738a4.9,4.9,0,1,0-4.9-4.9A4.9,4.9,0,0,0,428.146,66.738Z" transform="translate(705.85 -56.933)"/><path class="co" d="M50.771,146.473a5.768,5.768,0,1,0,5.768,5.768A5.768,5.768,0,0,0,50.771,146.473Z" transform="translate(17.201 106.089)"/><circle class="cp" cx="3.63" cy="3.63" r="3.63" transform="translate(1.636 218.495)"/><path class="cq" d="M26.6,114.544a2.754,2.754,0,1,0-2.756-2.753A2.753,2.753,0,0,0,26.6,114.544Z" transform="translate(-21.33 37.927)"/><circle class="cr" cx="8.433" cy="8.433" r="8.433" transform="translate(59.541 105.081)"/><path class="cs" d="M73.855,147.348a7.09,7.09,0,1,0-7.088-7.091A7.09,7.09,0,0,0,73.855,147.348Z" transform="translate(56.826 81.867)"/><path class="ct" d="M251.353,146.443a6.54,6.54,0,1,0-6.541-6.541A6.54,6.54,0,0,0,251.353,146.443Z" transform="translate(380.986 82.222)"/><path class="cu" d="M293.753,108.826a3.344,3.344,0,1,0,3.342,3.345A3.345,3.345,0,0,0,293.753,108.826Z" transform="translate(464.001 37.547)"/><path class="cv" d="M295.6,145.891a6.2,6.2,0,1,0-6.205-6.205A6.206,6.206,0,0,0,295.6,145.891Z" transform="translate(462.155 82.439)"/><circle class="cw" cx="3.916" cy="3.916" r="3.916" transform="translate(816.545 254.413)"/><path class="cx" d="M341.972,106.763a9.164,9.164,0,1,0,9.164,9.164A9.164,9.164,0,0,0,341.972,106.763Z" transform="translate(541.197 33.791)"/><path class="cy" d="M384.908,121.195a6.8,6.8,0,1,0-6.8-6.795A6.795,6.795,0,0,0,384.908,121.195Z" transform="translate(623.677 35.318)"/><path class="cz" d="M407.122,159.664a6.774,6.774,0,1,0-6.772-6.772A6.775,6.775,0,0,0,407.122,159.664Z" transform="translate(664.168 105.439)"/><path class="da" d="M385.676,148.824a7.987,7.987,0,1,0-7.988-7.988A7.988,7.988,0,0,0,385.676,148.824Z" transform="translate(622.908 81.288)"/><path class="db" d="M429.67,121.963a7.263,7.263,0,1,0-7.263-7.263A7.262,7.262,0,0,0,429.67,121.963Z" transform="translate(704.327 35.018)"/><path class="dc" d="M277.933,151.881a5.208,5.208,0,1,0-5.207,5.21A5.209,5.209,0,0,0,277.933,151.881Z" transform="translate(422.322 106.45)"/><circle class="dd" cx="4.2" cy="4.2" r="4.2" transform="translate(878.969 217.926)"/><path class="de" d="M361.192,155.921a4.5,4.5,0,1,0-4.5-4.5A4.5,4.5,0,0,0,361.192,155.921Z" transform="translate(584.684 106.908)"/><circle class="df" cx="4.457" cy="4.457" r="4.457" transform="translate(1129.541 362.485)"/><path class="dg" d="M406.5,172.131a5.8,5.8,0,1,0,5.8,5.8A5.8,5.8,0,0,0,406.5,172.131Z" transform="translate(664.795 152.804)"/><circle class="dh" cx="5.549" cy="5.549" r="5.549" transform="translate(1128.449 216.576)"/><path class="di" d="M51.31,223.188a6.6,6.6,0,1,0,6.606,6.606A6.6,6.6,0,0,0,51.31,223.188Z" transform="translate(16.662 245.761)"/><circle class="dj" cx="0.58" cy="0.58" r="0.58" transform="translate(4.686 438.77)"/><circle class="dk" cx="5.266" cy="5.266" r="5.266" transform="translate(0 361.676)"/><path class="dl" d="M49.977,172.579a4.54,4.54,0,1,0,4.541,4.538A4.541,4.541,0,0,0,49.977,172.579Z" transform="translate(17.995 153.619)"/><path class="dm" d="M90.055,228.181a4.107,4.107,0,1,0,4.107-4.107A4.107,4.107,0,0,0,90.055,228.181Z" transform="translate(99.226 247.374)"/><path class="dn" d="M318.151,171.812a6.7,6.7,0,1,0,6.7,6.7A6.7,6.7,0,0,0,318.151,171.812Z" transform="translate(502.31 152.223)"/><path class="do" d="M333.589,191.517a6.96,6.96,0,1,0,6.961-6.961A6.959,6.959,0,0,0,333.589,191.517Z" transform="translate(542.619 175.425)"/><circle class="dp" cx="4.206" cy="4.206" r="4.206" transform="translate(941.67 471.348)"/><circle class="dq" cx="5.477" cy="5.477" r="5.477" transform="translate(877.691 433.873)"/><circle class="dr" cx="5.844" cy="5.844" r="5.844" transform="translate(940.032 324.894)"/><circle class="ds" cx="8.301" cy="8.301" r="8.301" transform="translate(1000.282 431.049)"/><path class="dt" d="M405.777,233.246a4.689,4.689,0,1,0-4.688-4.688A4.688,4.688,0,0,0,405.777,233.246Z" transform="translate(665.514 246.998)"/><path class="du" d="M385.822,200.54a8.214,8.214,0,1,0-8.214-8.214A8.215,8.215,0,0,0,385.822,200.54Z" transform="translate(622.763 174.617)"/><circle class="dv" cx="3.726" cy="3.726" r="3.726" transform="translate(1130.272 435.624)"/><path class="dw" d="M74.442,225.852a8,8,0,1,0-8-8A8,8,0,0,0,74.442,225.852Z" transform="translate(56.24 221.494)"/><path class="dx" d="M95.9,262.379a6.794,6.794,0,1,0-6.792-6.795A6.8,6.8,0,0,0,95.9,262.379Z" transform="translate(97.492 292.378)"/><path class="dy" d="M141.284,253.283a3.227,3.227,0,1,0-3.227,3.227A3.228,3.228,0,0,0,141.284,253.283Z" transform="translate(180.746 294.679)"/><path class="dz" d="M162.234,274.309a6.244,6.244,0,1,0-6.242-6.242A6.243,6.243,0,0,0,162.234,274.309Z" transform="translate(219.275 316.101)"/><path class="ea" d="M190.36,255.093a6.031,6.031,0,1,0-6.031,6.031A6.03,6.03,0,0,0,190.36,255.093Z" transform="translate(259.888 292.869)"/><path class="eb" d="M207.223,275.65a7.059,7.059,0,1,0-7.057-7.057A7.059,7.059,0,0,0,207.223,275.65Z" transform="translate(299.701 315.575)"/><circle class="ec" cx="4.069" cy="4.069" r="4.069" transform="translate(63.905 688.71)"/><circle class="ed" cx="3.249" cy="3.249" r="3.249" transform="translate(2.018 653.326)"/><path class="ee" d="M24.271,265.03a1.54,1.54,0,1,0,1.54-1.54A1.54,1.54,0,0,0,24.271,265.03Z" transform="translate(-20.545 319.138)"/><circle class="ef" cx="6.376" cy="6.376" r="6.376" transform="translate(61.597 541.586)"/><path class="eg" d="M67.417,293.1a5.255,5.255,0,1,0,5.255-5.255A5.255,5.255,0,0,0,67.417,293.1Z" transform="translate(58.009 363.476)"/><path class="eh" d="M75.209,266.363a3.6,3.6,0,1,0-3.6,3.6A3.6,3.6,0,0,0,75.209,266.363Z" transform="translate(59.075 317.805)"/><path class="ei" d="M115.649,262.989a2.952,2.952,0,1,0,2.95,2.953A2.954,2.954,0,0,0,115.649,262.989Z" transform="translate(140.447 318.226)"/><path class="ej" d="M134.213,305.748a4.967,4.967,0,1,0,4.967-4.967A4.967,4.967,0,0,0,134.213,305.748Z" transform="translate(179.622 387.032)"/><path class="ek" d="M118.362,287.17a7.155,7.155,0,1,0,7.153,7.153A7.154,7.154,0,0,0,118.362,287.17Z" transform="translate(137.734 362.251)"/><path class="el" d="M207.649,302.407a7.719,7.719,0,1,0-7.717-7.72A7.719,7.719,0,0,0,207.649,302.407Z" transform="translate(299.275 361.887)"/><path class="em" d="M360.784,301.17a3.868,3.868,0,1,0,3.867,3.87A3.868,3.868,0,0,0,360.784,301.17Z" transform="translate(585.091 387.74)"/><path class="en" d="M361.2,258.629a4.514,4.514,0,1,0-4.516-4.516A4.517,4.517,0,0,0,361.2,258.629Z" transform="translate(584.673 293.849)"/><path class="eo" d="M386.211,260.91a8.816,8.816,0,1,0,8.815,8.817A8.815,8.815,0,0,0,386.211,260.91Z" transform="translate(622.373 314.44)"/><path class="ep" d="M405.846,259.09a4.8,4.8,0,1,0-4.8-4.8A4.795,4.795,0,0,0,405.846,259.09Z" transform="translate(665.445 293.667)"/><path class="eq" d="M429.617,275.853a7.181,7.181,0,1,0-7.181-7.181A7.18,7.18,0,0,0,429.617,275.853Z" transform="translate(704.379 315.496)"/><path class="er" d="M431.163,286.31a9.579,9.579,0,1,0,9.579,9.579A9.578,9.578,0,0,0,431.163,286.31Z" transform="translate(702.834 360.685)"/><path class="es" d="M89.826,305.612a4.753,4.753,0,1,0,4.753-4.756A4.755,4.755,0,0,0,89.826,305.612Z" transform="translate(98.809 387.169)"/><path class="et" d="M96.532,341.013a7.779,7.779,0,1,0-7.779-7.779A7.78,7.78,0,0,0,96.532,341.013Z" transform="translate(96.855 431.953)"/><circle class="eu" cx="8.124" cy="8.124" r="8.124" transform="translate(373.386 648.451)"/><circle class="ev" cx="2.988" cy="2.988" r="2.988" transform="translate(441.229 689.791)"/><path class="ew" d="M206.537,350.908a5.992,5.992,0,1,0-5.994-5.994A5.992,5.992,0,0,0,206.537,350.908Z" transform="translate(300.387 456.476)"/><circle class="ex" cx="9.163" cy="9.163" r="9.163" transform="translate(435.055 756.024)"/><path class="ey" d="M366.851,331.571a5.2,5.2,0,1,0-5.2,5.2A5.2,5.2,0,0,0,366.851,331.571Z" transform="translate(584.228 433.615)"/><path class="ez" d="M407.128,313.7a6.779,6.779,0,1,0-6.781-6.778A6.779,6.779,0,0,0,407.128,313.7Z" transform="translate(664.163 385.861)"/><path class="fa" d="M407.122,325.811a6.772,6.772,0,1,0,6.772,6.772A6.772,6.772,0,0,0,407.122,325.811Z" transform="translate(664.168 432.603)"/><path class="fb" d="M26.791,341.821a1.2,1.2,0,1,0-1.2,1.2A1.2,1.2,0,0,0,26.791,341.821Z" transform="translate(-20.326 459.569)"/><path class="fc" d="M49.57,326.826a3.909,3.909,0,1,0,3.909,3.909A3.909,3.909,0,0,0,49.57,326.826Z" transform="translate(18.403 434.451)"/><path class="fd" d="M75.722,337.51A9.978,9.978,0,1,0,85.7,347.49,9.979,9.979,0,0,0,75.722,337.51Z" transform="translate(54.96 453.903)"/><path class="fe" d="M117.634,338.911a6.026,6.026,0,1,0,6.025,6.028A6.029,6.029,0,0,0,117.634,338.911Z" transform="translate(138.463 456.454)"/><path class="ff" d="M140.4,339.5a6.86,6.86,0,1,0-6.86-6.86A6.86,6.86,0,0,0,140.4,339.5Z" transform="translate(178.401 432.547)"/><path class="fg" d="M171.115,346.11a7.846,7.846,0,1,0-7.847,7.847A7.845,7.845,0,0,0,171.115,346.11Z" transform="translate(218.241 455.28)"/><path class="fh" d="M339.535,349.91a5.386,5.386,0,1,0-5.387-5.387A5.387,5.387,0,0,0,339.535,349.91Z" transform="translate(543.635 456.867)"/><path class="fi" d="M384.367,350.852a5.959,5.959,0,1,0-5.96-5.96A5.96,5.96,0,0,0,384.367,350.852Z" transform="translate(624.217 456.498)"/></g></g><g class="fj" transform="translate(-56.825 -97.937)"><g transform="translate(0)"><g transform="translate(0.001)"><path class="fk" d="M7.4,17.3V93.907L-3.006,99.916v.768L7.9,94.387l.167-.1V17.3Z" transform="translate(3.006 -17.296)"/><g transform="translate(622.702)"><path class="fl" d="M370.833,17.3V93.907l-76.2,44-76.2-44V17.3h-.665V94.291l76.7,44.284.166.1,76.7-44.284.167-.1V17.3Z" transform="translate(-217.759 -17.296)"/></g><g transform="translate(775.776)"><path class="fm" d="M425.1,17.3V93.907l-76.2,44-76.2-44V17.3h-.665V94.291l76.7,44.284.167.1,76.7-44.284.166-.1V17.3Z" transform="translate(-272.027 -17.296)"/></g><g transform="translate(928.851)"><path class="fn" d="M479.37,17.3V93.907l-76.2,44-76.2-44V17.3H326.3V94.291L403,138.575l.166.1,76.7-44.284.166-.1V17.3Z" transform="translate(-326.296 -17.296)"/></g><g transform="translate(1081.925)"><path class="fo" d="M381.23,93.907V17.3h-.665V94.291l76.7,44.284.166.1L505.885,110.7v-.768L457.432,137.9Z" transform="translate(-380.565 -17.296)"/></g><g transform="translate(852.314 76.42)"><path class="q" d="M376.031,221.91l-.166-.1-76.7-44.284V88.769l.166-.1,76.7-44.282.166.1,76.7,44.284V177.53l-.166.1Zm-76.206-44.764,76.206,44,76.206-44V89.153l-76.206-44-76.206,44Z" transform="translate(-299.162 -44.389)"/></g><g transform="translate(1005.388 76.42)"><path class="fp" d="M430.3,221.91l-.167-.1-76.7-44.284V88.769l.166-.1,76.7-44.282.166.1,76.7,44.284V177.53l-.166.1Zm-76.206-44.764,76.206,44,76.2-44V89.153l-76.2-44-76.206,44Z" transform="translate(-353.431 -44.389)"/></g><g transform="translate(1158.459 92.633)"><path class="fq" d="M456.483,194.462l-48.12-27.782V78.687l48.12-27.782v-.768l-48.619,28.07-.166.1v88.762l48.785,28.165Z" transform="translate(-407.699 -50.137)"/></g><g transform="translate(928.849 208.985)"><path class="fr" d="M403.168,268.908l-.166-.1L326.3,224.528V135.767l.166-.1,76.705-44.284.164.1,76.705,44.284v88.761l-.166.1Zm-76.206-44.764,76.206,44,76.2-44V136.151l-76.2-44-76.206,44Z" transform="translate(-326.296 -91.387)"/></g><g transform="translate(1081.925 208.984)"><path class="fs" d="M505.885,240.167,457.432,268.14l-76.2-44V136.151l76.2-44,48.453,27.973v-.768L457.6,91.483l-.167-.1-76.7,44.284-.166.1v88.762l76.7,44.284.166.1,48.453-27.974Z" transform="translate(-380.565 -91.387)"/></g><g transform="translate(0 341.55)"><path class="ft" d="M7.9,138.481l-.166-.1-10.741,6.2v.768l10.741-6.2,76.2,44v87.993l-76.2,44-10.741-6.2v.768l10.575,6.105.166.1,76.7-44.284.166-.1V182.765Z" transform="translate(3.006 -138.385)"/></g><g transform="translate(1005.388 341.551)"><path class="x" d="M430.3,315.906l-.167-.1-76.7-44.284V182.765l.166-.1,76.7-44.284.166.1,76.7,44.284v88.761l-.166.1Zm-76.206-44.764,76.206,44,76.2-44V183.149l-76.2-44-76.206,44Z" transform="translate(-353.431 -138.385)"/></g><g transform="translate(1158.459 357.764)"><path class="fu" d="M456.483,288.458l-48.12-27.782V172.683l48.12-27.782v-.768L407.865,172.2l-.166.1v88.762l48.785,28.165Z" transform="translate(-407.699 -144.133)"/></g><g transform="translate(0 512.103)"><path class="fv" d="M-3.006,198.85v.768L7.4,205.627v87.993L-3.006,299.63v.768L7.9,294.1l.167-.1V205.243Z" transform="translate(3.006 -198.85)"/></g><g transform="translate(10.408 474.116)"><path class="fw" d="M77.55,362.9l-.164-.1L.684,318.524V229.763l.166-.1,76.7-44.284.166.1,76.705,44.284v88.761l-.166.1ZM1.35,318.14l76.2,44,76.206-44V230.147l-76.206-44-76.2,44Z" transform="translate(-0.684 -185.383)"/></g><g transform="translate(163.479 474.116)"><path class="fx" d="M131.821,362.9l-.166-.1-76.7-44.284V229.763l.166-.1,76.7-44.284.166.1,76.705,44.284v88.761l-.166.1Zm-76.2-44.764,76.2,44,76.206-44V230.147l-76.206-44-76.2,44Z" transform="translate(-54.952 -185.383)"/></g><g transform="translate(316.554 474.116)"><path class="fy" d="M186.09,362.9l-.166-.1-76.7-44.284V229.763l.166-.1,76.7-44.284.166.1,76.7,44.284v88.761l-.166.1Zm-76.2-44.764,76.2,44,76.206-44V230.147l-76.206-44-76.2,44Z" transform="translate(-109.221 -185.383)"/></g><g transform="translate(0 606.681)"><path class="fz" d="M7.9,232.477l-.166-.1-10.741,6.2v.769l10.741-6.2,76.2,44v87.993l-76.2,44-10.741-6.2v.768l10.575,6.105.166.1,76.7-44.284.166-.1V276.761Z" transform="translate(3.006 -232.381)"/></g><g transform="translate(86.944 606.682)"><path class="ga" d="M104.687,409.9l-.166-.1-76.7-44.284V276.761l.166-.1,76.7-44.284.166.1,76.7,44.284v88.761l-.166.1ZM28.481,365.138l76.206,44,76.2-44V277.145l-76.2-44-76.206,44Z" transform="translate(-27.818 -232.381)"/></g><g transform="translate(240.015 606.682)"><path class="ag" d="M158.958,409.9l-.166-.1L82.086,365.522V276.761l.166-.1,76.705-44.284.166.1,76.7,44.284v88.761l-.166.1ZM82.752,365.138l76.206,44,76.2-44V277.145l-76.2-44-76.206,44Z" transform="translate(-82.086 -232.381)"/></g><g transform="translate(0 777.235)"><path class="gb" d="M-3.006,292.846v.768L7.4,299.624v87.993l-10.408,6.009v.768L7.9,388.1l.167-.1V299.239Z" transform="translate(3.006 -292.846)"/></g><g transform="translate(10.408 739.247)"><path class="gc" d="M77.55,456.9l-.164-.1L.684,412.52V323.759l.166-.1,76.7-44.284.166.1,76.705,44.284V412.52l-.166.1ZM1.35,412.136l76.2,44,76.206-44V324.143l-76.206-44-76.2,44Z" transform="translate(-0.684 -279.379)"/></g><g transform="translate(163.479 739.247)"><path class="gd" d="M131.821,456.9l-.166-.1-76.7-44.284V323.759l.166-.1,76.7-44.284.166.1,76.705,44.284V412.52l-.166.1Zm-76.2-44.764,76.2,44,76.206-44V324.143l-76.206-44-76.2,44Z" transform="translate(-54.952 -279.379)"/></g><g transform="translate(316.554 739.247)"><path class="ge" d="M186.09,456.9l-.166-.1-76.7-44.284V323.759l.166-.1,76.7-44.284.166.1,76.7,44.284V412.52l-.166.1Zm-76.2-44.764,76.2,44,76.206-44V324.143l-76.206-44-76.2,44Z" transform="translate(-109.221 -279.379)"/></g><g transform="translate(928.849 739.247)"><path class="gf" d="M403.168,456.9l-.166-.1L326.3,412.52V323.759l.166-.1,76.705-44.284.164.1,76.705,44.284V412.52l-.166.1Zm-76.206-44.764,76.206,44,76.2-44V324.143l-76.2-44-76.206,44Z" transform="translate(-326.296 -279.379)"/></g><g transform="translate(1081.925 739.247)"><path class="gg" d="M505.885,428.159l-48.453,27.973-76.2-44V324.143l76.2-44,48.453,27.973v-.768L457.6,279.475l-.167-.1-76.7,44.284-.166.1v88.762l76.7,44.284.166.1,48.453-27.974Z" transform="translate(-380.565 -279.379)"/></g><g transform="translate(0 871.813)"><path class="gh" d="M7.9,326.473l-.166-.1-10.741,6.2v.768l10.741-6.2,76.2,44v25.524H84.6V370.758Z" transform="translate(3.006 -326.377)"/></g><g transform="translate(86.943 871.813)"><path class="gi" d="M28.482,396.666V371.142l76.2-44,76.2,44v25.524h.665V370.758l-76.7-44.284-.166-.1-76.7,44.284-.166.1v25.908Z" transform="translate(-27.818 -326.377)"/></g><g transform="translate(240.017 871.813)"><path class="gj" d="M82.752,396.666V371.142l76.2-44,76.2,44v25.524h.665V370.758l-76.7-44.284-.166-.1-76.7,44.284-.166.1v25.908Z" transform="translate(-82.087 -326.377)"/></g><g transform="translate(393.091 871.813)"><path class="gk" d="M137.02,396.666V371.142l76.2-44,76.2,44v25.524h.665V370.758l-76.7-44.284-.166-.1-76.7,44.284-.166.1v25.908Z" transform="translate(-136.355 -326.377)"/></g><g transform="translate(1005.387 871.813)"><path class="gl" d="M354.1,396.666V371.142l76.2-44,76.2,44v25.524h.664V370.758l-76.7-44.284-.166-.1-76.7,44.284-.167.1v25.908Z" transform="translate(-353.431 -326.377)"/></g><g transform="translate(1158.459 888.027)"><path class="gm" d="M456.483,332.125,407.865,360.2l-.166.1V386.2h.665V360.676l48.12-27.782Z" transform="translate(-407.699 -332.125)"/></g></g><g transform="translate(0.001)"><g transform="translate(905.751)"><path class="gn" d="M517.6,17.3v90.067l-98.017,56.589-98.016-56.589V17.3h-3.465v92.067l101.481,58.589,101.481-58.589V17.3Z" transform="translate(-318.107 -17.296)"/></g><g transform="translate(1105.249)"><path class="go" d="M392.3,107.364V17.3h-3.464v92.067l101.477,58.589.518-.3v-4l-.518.3Z" transform="translate(-388.834 -17.296)"/></g><g transform="translate(0 141.03)"><path class="gp" d="M-3.006,67.295v4l8.013,4.626V189.1l-8.013,4.626v4L8.472,191.1V73.922Z" transform="translate(3.006 -67.295)"/></g><g transform="translate(8.013 89.068)"><path class="gq" d="M101.317,283.231-.165,224.643V107.461L101.317,48.873,202.8,107.461V224.643ZM3.3,222.643l98.018,56.588,98.015-56.588V109.461L101.317,52.873,3.3,109.461Z" transform="translate(0.165 -48.873)"/></g><g transform="translate(1204.994 146.358)"><path class="gr" d="M426.446,69.184l-2.25,1.3v117.18l2.25,1.3Z" transform="translate(-424.197 -69.184)"/></g><g transform="translate(0 261.837)"><path class="gs" d="M6.74,110.124l-9.746,5.627v4l9.746-5.627,98.017,56.589v113.18L6.74,340.483l-9.746-5.627v4l9.746,5.627,101.481-58.589V168.713Z" transform="translate(3.006 -110.124)"/></g><g transform="translate(107.763 261.836)"><path class="bb" d="M136.678,344.482,35.2,285.894V168.715l101.479-58.591L238.16,168.715V285.894ZM38.663,283.894l98.015,56.591L234.7,283.894V170.715l-98.018-56.591L38.663,170.715Z" transform="translate(-35.199 -110.124)"/></g><g transform="translate(0 486.568)"><path class="gt" d="M-3.006,189.8v4l8.013,4.626V311.6l-8.013,4.626v4L8.472,313.6V196.424Z" transform="translate(3.006 -189.798)"/></g><g transform="translate(8.013 434.607)"><path class="gu" d="M101.317,405.734-.165,347.143V229.964l101.482-58.588L202.8,229.964V347.143ZM3.3,345.143l98.018,56.591,98.015-56.591V231.964l-98.015-56.588L3.3,231.964Z" transform="translate(0.165 -171.376)"/></g><g transform="translate(1005.501 434.607)"><path class="gv" d="M555.213,229.262,454.95,171.376,353.471,229.964V347.143L454.95,405.734l100.263-57.888ZM454.95,401.734l-98.015-56.591V231.964l98.015-56.588,98.015,56.588V345.143Z" transform="translate(-353.471 -171.376)"/></g><g transform="translate(0 607.375)"><path class="gw" d="M6.74,232.627l-9.746,5.627v4l9.746-5.627,98.017,56.589V406.4L6.74,462.986l-9.746-5.627v4l9.746,5.627L108.221,408.4V291.216Z" transform="translate(3.006 -232.627)"/></g><g transform="translate(107.763 607.376)"><path class="gx" d="M136.678,466.985,35.2,408.4V291.215l101.479-58.588L238.16,291.215V408.4ZM38.663,406.4l98.015,56.588L234.7,406.4V293.215l-98.018-56.588L38.663,293.215Z" transform="translate(-35.199 -232.627)"/></g><g transform="translate(905.751 607.376)"><path class="gy" d="M419.589,466.985,318.107,408.4V291.215l101.482-58.588,101.482,58.588V408.4ZM321.571,406.4l98.018,56.588L517.6,406.4V293.215l-98.015-56.588-98.018,56.588Z" transform="translate(-318.107 -232.627)"/></g><g transform="translate(1105.249 607.375)"><path class="gz" d="M490.829,462.687l-.518.3L392.3,406.4V293.216l98.013-56.589.518.3v-4l-.518-.3L388.834,291.216V408.4l101.477,58.589.518-.3Z" transform="translate(-388.834 -232.627)"/></g><g transform="translate(0 832.107)"><path class="ha" d="M-3.006,312.3v4l8.013,4.626V422.295H8.472V318.927Z" transform="translate(3.006 -312.3)"/></g><g transform="translate(8.013 780.145)"><path class="hb" d="M3.3,455.835V354.467l98.016-56.589,98.017,56.589V455.835H202.8V352.467L101.316,293.878-.165,352.467V455.835Z" transform="translate(0.165 -293.878)"/></g><g transform="translate(207.511 780.145)"><path class="hc" d="M74.027,455.835V354.467l98.017-56.589,98.016,56.589V455.835h3.465V352.467l-101.48-58.589L70.562,352.467V455.835Z" transform="translate(-70.562 -293.878)"/></g><g transform="translate(407.008 780.145)"><path class="hd" d="M144.754,455.835V354.467l98.017-56.589,98.016,56.589V455.835h3.465V352.467L242.771,293.878,141.289,352.467V455.835Z" transform="translate(-141.289 -293.878)"/></g><g transform="translate(606.505 780.145)"><path class="he" d="M215.482,455.835V354.467L313.5,297.878l98.016,56.589V455.835h3.465V352.467L313.5,293.878,212.016,352.467V455.835Z" transform="translate(-212.016 -293.878)"/></g><g transform="translate(806.002 780.145)"><path class="hf" d="M286.209,455.835V354.467l98.016-56.589,98.017,56.589V455.835h3.465V352.467L384.225,293.878,282.743,352.467V455.835Z" transform="translate(-282.743 -293.878)"/></g><g transform="translate(1005.5 780.145)"><path class="hg" d="M555.214,455.835V351.766L454.951,293.878,353.471,352.467V455.835h3.465V354.467l98.016-56.589,98.013,56.589V455.835Z" transform="translate(-353.471 -293.878)"/></g><g transform="translate(1204.994 837.435)"><path class="hh" d="M426.446,314.189l-2.25,1.3V418.855h2.25Z" transform="translate(-424.197 -314.189)"/></g></g><g transform="translate(0 67.055)"><path class="hi" d="M6.388,58.76a8.651,8.651,0,1,0-8.654-8.651A8.652,8.652,0,0,0,6.388,58.76Z" transform="translate(4.353 -40.361)"/><circle class="hj" cx="7.982" cy="7.982" r="7.982" transform="translate(615.052 1.765)"/><path class="hk" d="M277.034,56.984a7.572,7.572,0,1,0-7.573-7.571A7.572,7.572,0,0,0,277.034,56.984Z" transform="translate(499.075 -39.665)"/><circle class="hl" cx="4.78" cy="4.78" r="4.78" transform="translate(847.866 49.156)"/><path class="hm" d="M413.153,73.795a8.267,8.267,0,1,0-8.267-8.267A8.266,8.266,0,0,0,413.153,73.795Z" transform="translate(745.64 -11.591)"/><circle class="hn" cx="9.747" cy="9.747" r="9.747" transform="translate(1072.509)"/><path class="ho" d="M255.473,64.295a6.358,6.358,0,1,0-6.358,6.358A6.357,6.357,0,0,0,255.473,64.295Z" transform="translate(450.458 -10.358)"/><circle class="hp" cx="5.126" cy="5.126" r="5.126" transform="translate(924.057 4.621)"/><circle class="hq" cx="5.492" cy="5.492" r="5.492" transform="translate(1000.227 48.444)"/><path class="hr" d="M412.389,89.012a7.083,7.083,0,1,0,7.083,7.083A7.082,7.082,0,0,0,412.389,89.012Z" transform="translate(746.405 46.219)"/><path class="hs" d="M26.159,157.422a5.012,5.012,0,1,0,5.012-5.012A5.01,5.01,0,0,0,26.159,157.422Z" transform="translate(56.106 161.645)"/><circle class="ht" cx="8.181" cy="8.181" r="8.181" transform="translate(844.465 134.132)"/><path class="hu" d="M323.4,112.673a8.5,8.5,0,1,0,8.5-8.5A8.5,8.5,0,0,0,323.4,112.673Z" transform="translate(597.285 73.829)"/><circle class="hv" cx="5.134" cy="5.134" r="5.134" transform="translate(1000.585 313.934)"/><path class="hw" d="M330.729,136.151a6.685,6.685,0,1,0,6.685,6.685A6.685,6.685,0,0,0,330.729,136.151Z" transform="translate(598.454 132.043)"/><circle class="hx" cx="7.133" cy="7.133" r="7.133" transform="translate(998.586 135.18)"/><circle class="hy" cx="10.132" cy="10.132" r="10.132" transform="translate(1072.124 264.747)"/><path class="hz" d="M411.511,163.6a5.723,5.723,0,1,0-5.723-5.723A5.723,5.723,0,0,0,411.511,163.6Z" transform="translate(747.282 161.187)"/><path class="ia" d="M387.156,123.684a10.025,10.025,0,1,0-10.028-10.025A10.024,10.024,0,0,0,387.156,123.684Z" transform="translate(695.102 72.843)"/><path class="ib" d="M7.1,154.58a9.759,9.759,0,1,0-9.762-9.76A9.761,9.761,0,0,0,7.1,154.58Z" transform="translate(3.638 130.059)"/><path class="ic" d="M33.289,199.165A8.293,8.293,0,1,0,25,190.872,8.291,8.291,0,0,0,33.289,199.165Z" transform="translate(53.988 216.573)"/><path class="id" d="M88.686,188.061A3.939,3.939,0,1,0,84.748,192,3.938,3.938,0,0,0,88.686,188.061Z" transform="translate(155.603 219.384)"/><circle class="ie" cx="7.621" cy="7.621" r="7.621" transform="translate(309.266 444.012)"/><path class="if" d="M148.585,190.271a7.361,7.361,0,1,0-7.362,7.362A7.362,7.362,0,0,0,148.585,190.271Z" transform="translate(252.2 217.174)"/><circle class="ig" cx="8.616" cy="8.616" r="8.616" transform="translate(461.345 443.017)"/><path class="ih" d="M-1.472,236.657a6.413,6.413,0,1,0,6.414-6.414A6.414,6.414,0,0,0-1.472,236.657Z" transform="translate(5.799 303.353)"/><path class="ii" d="M8.04,204.023a4.4,4.4,0,1,0-4.4,4.4A4.4,4.4,0,0,0,8.04,204.023Z" transform="translate(7.099 247.61)"/><circle class="ij" cx="3.602" cy="3.602" r="3.602" transform="translate(160.211 448.031)"/><path class="ik" d="M80.056,252.1a6.06,6.06,0,1,0,6.062-6.062A6.061,6.061,0,0,0,80.056,252.1Z" transform="translate(154.234 332.103)"/><path class="il" d="M60.7,229.421a8.733,8.733,0,1,0,8.733,8.733A8.732,8.732,0,0,0,60.7,229.421Z" transform="translate(103.108 301.856)"/><circle class="im" cx="9.421" cy="9.421" r="9.421" transform="translate(460.54 530.589)"/><path class="in" d="M356.594,246.51a4.72,4.72,0,1,0,4.722,4.719A4.719,4.719,0,0,0,356.594,246.51Z" transform="translate(649.125 332.97)"/><circle class="io" cx="5.511" cy="5.511" r="5.511" transform="translate(1000.208 401.934)"/><circle class="ip" cx="10.761" cy="10.761" r="10.761" transform="translate(1071.495 440.872)"/><path class="iq" d="M411.595,195.15a5.853,5.853,0,1,0-5.853-5.853A5.853,5.853,0,0,0,411.595,195.15Z" transform="translate(747.198 218.148)"/><circle class="ir" cx="5.801" cy="5.801" r="5.801" transform="translate(81.475 578.398)"/><path class="is" d="M34.064,295.138a9.494,9.494,0,1,0-9.494-9.494A9.494,9.494,0,0,0,34.064,295.138Z" transform="translate(53.213 386.932)"/><circle class="it" cx="9.916" cy="9.916" r="9.916" transform="translate(306.971 530.095)"/><path class="iu" d="M135.18,250.537a3.647,3.647,0,1,0,3.647-3.647A3.648,3.648,0,0,0,135.18,250.537Z" transform="translate(254.596 333.662)"/><circle class="iv" cx="7.316" cy="7.316" r="7.316" transform="translate(462.645 709.449)"/><path class="iw" d="M143.69,275.55a11.184,11.184,0,1,0,11.184,11.184A11.183,11.183,0,0,0,143.69,275.55Z" transform="translate(249.733 385.842)"/><path class="ix" d="M364,283.615a6.352,6.352,0,1,0-6.352,6.352A6.351,6.351,0,0,0,364,283.615Z" transform="translate(648.071 388.961)"/><path class="iy" d="M413.159,261.8a8.276,8.276,0,1,0-8.276-8.276A8.275,8.275,0,0,0,413.159,261.8Z" transform="translate(745.634 330.674)"/><path class="iz" d="M413.152,276.585a8.265,8.265,0,1,0,8.265,8.265A8.265,8.265,0,0,0,413.152,276.585Z" transform="translate(745.642 387.726)"/><path class="ja" d="M7.732,290.863a12.133,12.133,0,0,0-10.738,6.55v11.26a12.156,12.156,0,1,0,10.738-17.81Z" transform="translate(3.006 413.722)"/><path class="jb" d="M31.33,350.83a5.258,5.258,0,1,0-5.258-5.258A5.258,5.258,0,0,0,31.33,350.83Z" transform="translate(55.947 503.757)"/><path class="jc" d="M61.774,343.6a10.386,10.386,0,1,0-10.386-10.386A10.384,10.384,0,0,0,61.774,343.6Z" transform="translate(102.039 471.925)"/><path class="jd" d="M59.816,292.574a7.355,7.355,0,1,0,7.356,7.353A7.353,7.353,0,0,0,59.816,292.574Z" transform="translate(103.996 416.837)"/><path class="je" d="M87.611,293.29a8.372,8.372,0,1,0-8.375-8.372A8.372,8.372,0,0,0,87.611,293.29Z" transform="translate(152.741 387.657)"/><path class="jf" d="M125.1,301.362a9.576,9.576,0,1,0-9.576,9.576A9.576,9.576,0,0,0,125.1,301.362Z" transform="translate(201.367 415.402)"/><path class="jg" d="M141.331,354.565a7.527,7.527,0,1,0-7.526-7.528A7.529,7.529,0,0,0,141.331,354.565Z" transform="translate(252.093 502.293)"/><circle class="jh" cx="7.948" cy="7.948" r="7.948" transform="translate(462.013 797.194)"/><path class="ji" d="M330.658,306a6.575,6.575,0,1,0-6.575-6.575A6.575,6.575,0,0,0,330.658,306Z" transform="translate(598.525 417.339)"/><circle class="jj" cx="7.274" cy="7.274" r="7.274" transform="translate(1074.982 709.491)"/><path class="jk" d="M3.349,325.115a3.945,3.945,0,1,0,3.943,3.943A3.944,3.944,0,0,0,3.349,325.115Z" transform="translate(7.392 476.083)"/><path class="jl" d="M88.612,338.661a9.923,9.923,0,1,0,9.923,9.923A9.925,9.925,0,0,0,88.612,338.661Z" transform="translate(151.74 500.746)"/><circle class="jm" cx="4.442" cy="4.442" r="4.442" transform="translate(312.445 800.7)"/><circle class="jn" cx="5.873" cy="5.873" r="5.873" transform="translate(540.625 843.458)"/><path class="jo" d="M331.166,323.9a7.362,7.362,0,1,0,7.362,7.362A7.362,7.362,0,0,0,331.166,323.9Z" transform="translate(598.017 473.876)"/><path class="jp" d="M352.093,344.828a4.106,4.106,0,1,0,4.1-4.1A4.1,4.1,0,0,0,352.093,344.828Z" transform="translate(649.522 504.502)"/><path class="jq" d="M385.621,323.8a7.648,7.648,0,1,0,7.647,7.647A7.648,7.648,0,0,0,385.621,323.8Z" transform="translate(696.637 473.693)"/><path class="jr" d="M413.661,338.969a9.056,9.056,0,1,0,9.054,9.054A9.054,9.054,0,0,0,413.661,338.969Z" transform="translate(745.132 501.306)"/></g></g></g></g></g></g></g></svg>