<svg xmlns="http://www.w3.org/2000/svg" xmlns:xlink="http://www.w3.org/1999/xlink" width="203.078" height="133.361" viewBox="0 0 203.078 133.361"><defs><style>.a{fill:url(#a);}.b{fill:#ffb500;}.c{fill:url(#b);}.d{fill:#fff;}.e{fill:#003989;}.f{fill:url(#c);}.g{fill:url(#d);}</style><radialGradient id="a" cx="0.5" cy="0.5" fx="0.26542311906814575" r="0.473" gradientTransform="translate(-0.062) scale(1.123 1)" gradientUnits="objectBoundingBox"><stop offset="0" stop-color="#fff"/><stop offset="0.027" stop-color="#fffce2"/><stop offset="0.086" stop-color="#fff59a"/><stop offset="0.172" stop-color="#ffeb28"/><stop offset="0.201" stop-color="#ffe800"/><stop offset="0.718" stop-color="#ffc300"/><stop offset="0.999" stop-color="#ffb500"/></radialGradient><radialGradient id="b" cx="0.5" cy="0.5" r="0.5" gradientTransform="translate(0)" gradientUnits="objectBoundingBox"><stop offset="0" stop-color="#acdefa"/><stop offset="0.093" stop-color="#8fd4f7"/><stop offset="0.201" stop-color="#6ac7f4"/><stop offset="0.358" stop-color="#51a4d9"/><stop offset="0.661" stop-color="#2567ab"/><stop offset="0.883" stop-color="#0a418e"/><stop offset="1" stop-color="#003383"/></radialGradient><radialGradient id="c" cx="0.5" cy="0.5" r="0.446" gradientTransform="translate(-0.148) scale(1.297 1)" gradientUnits="objectBoundingBox"><stop offset="0" stop-color="#fff"/><stop offset="0.045" stop-color="#fffce2"/><stop offset="0.143" stop-color="#fff59a"/><stop offset="0.286" stop-color="#ffeb28"/><stop offset="0.334" stop-color="#ffe800"/><stop offset="0.765" stop-color="#ffc300"/><stop offset="0.999" stop-color="#ffb500"/></radialGradient><radialGradient id="d" cx="0.5" cy="0.5" r="0.433" gradientTransform="translate(-0.207) scale(1.413 1)" xlink:href="#c"/></defs><g transform="translate(-456.164 -41.446)"><path class="a" d="M588.738,161.644a7.755,7.755,0,0,0-1.721-1.941,7.938,7.938,0,0,0-2.335-1.3,8.059,8.059,0,0,0-2.728-.466,9.029,9.029,0,0,0-4.423,1.006,8.355,8.355,0,0,0-2.951,2.7,11.845,11.845,0,0,0-1.646,3.859,19.169,19.169,0,0,0-.516,4.474,17.813,17.813,0,0,0,.516,4.3,11.608,11.608,0,0,0,1.646,3.762,8.415,8.415,0,0,0,2.951,2.678,9,9,0,0,0,4.423,1.009,7.14,7.14,0,0,0,5.531-2.164,10,10,0,0,0,2.433-5.7h7.471a17.837,17.837,0,0,1-1.524,5.95,14.263,14.263,0,0,1-3.244,4.523,13.846,13.846,0,0,1-4.72,2.851,17.3,17.3,0,0,1-5.948.982,18,18,0,0,1-7.25-1.4,15.541,15.541,0,0,1-5.432-3.86,17.041,17.041,0,0,1-3.392-5.776,21.194,21.194,0,0,1-1.181-7.153,21.922,21.922,0,0,1,1.181-7.3,17.523,17.523,0,0,1,3.392-5.875,15.5,15.5,0,0,1,5.432-3.932,18.813,18.813,0,0,1,12.732-.591,14.858,14.858,0,0,1,4.621,2.434,13.14,13.14,0,0,1,3.367,3.957,14.142,14.142,0,0,1,1.671,5.408h-7.471A6.359,6.359,0,0,0,588.738,161.644Z" transform="translate(-13.257 -13.436)"/><path class="b" d="M606.645,171.149a8.094,8.094,0,0,1,1.229-4.08,8.355,8.355,0,0,1,2.752-2.606,12.041,12.041,0,0,1,3.762-1.4,21.459,21.459,0,0,1,4.2-.418,28.51,28.51,0,0,1,3.884.27,11.869,11.869,0,0,1,3.589,1.058,7.093,7.093,0,0,1,2.655,2.187,6.12,6.12,0,0,1,1.032,3.712v13.225a26.268,26.268,0,0,0,.2,3.293,5.929,5.929,0,0,0,.687,2.36h-7.08a9.946,9.946,0,0,1-.319-1.2,10.315,10.315,0,0,1-.173-1.254,9.1,9.1,0,0,1-3.932,2.409,15.8,15.8,0,0,1-4.62.687,12.462,12.462,0,0,1-3.394-.442,7.734,7.734,0,0,1-2.751-1.376,6.4,6.4,0,0,1-1.845-2.359,7.98,7.98,0,0,1-.664-3.394,7.4,7.4,0,0,1,.763-3.562,6.354,6.354,0,0,1,1.967-2.238,8.831,8.831,0,0,1,2.751-1.254,29.98,29.98,0,0,1,3.123-.664q1.571-.244,3.1-.392a18.875,18.875,0,0,0,2.7-.442,4.705,4.705,0,0,0,1.869-.86,1.892,1.892,0,0,0,.638-1.648,3.692,3.692,0,0,0-.369-1.793,2.7,2.7,0,0,0-.982-1.032,3.862,3.862,0,0,0-1.427-.492,11.7,11.7,0,0,0-1.744-.123A5.3,5.3,0,0,0,615,168.2a3.954,3.954,0,0,0-1.376,2.95Zm16.124,5.161a3.129,3.129,0,0,1-1.106.615,11.467,11.467,0,0,1-1.425.369q-.764.146-1.6.245c-.557.068-1.115.147-1.672.246a12.534,12.534,0,0,0-1.548.394,4.564,4.564,0,0,0-1.327.664,3.154,3.154,0,0,0-.91,1.056,3.394,3.394,0,0,0-.343,1.622,3.279,3.279,0,0,0,.343,1.574,2.651,2.651,0,0,0,.934,1.008,3.989,3.989,0,0,0,1.377.516,8.851,8.851,0,0,0,1.621.147,6.169,6.169,0,0,0,3.2-.689,4.617,4.617,0,0,0,1.671-1.646,5.289,5.289,0,0,0,.664-1.943,13.558,13.558,0,0,0,.122-1.572Z" transform="translate(-18.285 -14.804)"/><path class="b" d="M645.87,163.332v4.718h.1a8.6,8.6,0,0,1,1.327-2.188,8.762,8.762,0,0,1,1.916-1.719,9.392,9.392,0,0,1,2.311-1.106,8.33,8.33,0,0,1,2.556-.394,5.415,5.415,0,0,1,1.525.247v6.488c-.328-.066-.722-.122-1.18-.172a12.488,12.488,0,0,0-1.327-.074,7.442,7.442,0,0,0-3.245.64,5.609,5.609,0,0,0-2.138,1.745,7.026,7.026,0,0,0-1.155,2.58,14.015,14.015,0,0,0-.345,3.2v11.453h-6.98V163.332Z" transform="translate(-22.362 -14.804)"/><path class="b" d="M667.311,182.651a7.152,7.152,0,0,0,8.16.467,4.4,4.4,0,0,0,1.869-2.236h6.145a11.669,11.669,0,0,1-4.523,6.537,13.313,13.313,0,0,1-7.375,1.966,14.519,14.519,0,0,1-5.408-.958,11.247,11.247,0,0,1-4.08-2.728,12.3,12.3,0,0,1-2.581-4.228,15.47,15.47,0,0,1-.909-5.408,14.8,14.8,0,0,1,.935-5.31,12.277,12.277,0,0,1,6.759-7.078,13.141,13.141,0,0,1,5.284-1.033,12.069,12.069,0,0,1,5.653,1.254,11.293,11.293,0,0,1,3.959,3.367,13.858,13.858,0,0,1,2.235,4.817,17.948,17.948,0,0,1,.493,5.654H665.59Q665.74,181.128,667.311,182.651ZM675.2,169.28a4.911,4.911,0,0,0-3.812-1.376,6.1,6.1,0,0,0-2.777.565,5.29,5.29,0,0,0-1.77,1.4,5.11,5.11,0,0,0-.932,1.77,7.937,7.937,0,0,0-.321,1.671h11.356A8.071,8.071,0,0,0,675.2,169.28Z" transform="translate(-24.728 -14.804)"/><path class="c" d="M596.532,83.054H584.242V70.881a7.422,7.422,0,0,0-14.845,0V83.054H557.343a7.422,7.422,0,1,0,0,14.844H569.4v12.172a7.443,7.443,0,0,0,2.233,5.248,7.38,7.38,0,0,0,12.611-5.248V97.9h12.291a7.422,7.422,0,1,0,0-14.844Z" transform="translate(-11.452 -2.689)"/><path class="d" d="M586.177,92.32a5.892,5.892,0,0,1-1.8,3.012l-4.621,4.124-4.544-4.124a5.887,5.887,0,0,1-1.8-3.012,4.01,4.01,0,0,1,3.418-4.99,3.38,3.38,0,0,1,2.933,1.732,3.512,3.512,0,0,1,3-1.732,4.015,4.015,0,0,1,3.418,4.99Z" transform="translate(-14.304 -5.605)"/><g transform="translate(456.164 139.081)"><path class="e" d="M456.164,159.271v-6.6h29.272v6.6H474.727v29.122h-7.856V159.271Z" transform="translate(-456.164 -152.666)"/><path class="e" d="M510.295,152.666a14.9,14.9,0,0,1,5.7.975,10.687,10.687,0,0,1,3.827,2.577,9.893,9.893,0,0,1,2.151,3.653,13.64,13.64,0,0,1,0,8.482,9.855,9.855,0,0,1-2.151,3.678A10.686,10.686,0,0,1,516,174.608a14.9,14.9,0,0,1-5.7.975h-8.257v12.81h-7.856V152.666Zm-2.152,16.813a16.451,16.451,0,0,0,2.6-.2,6.016,6.016,0,0,0,2.2-.775,4.222,4.222,0,0,0,1.527-1.627,6.874,6.874,0,0,0,0-5.5,4.234,4.234,0,0,0-1.527-1.627,6.064,6.064,0,0,0-2.2-.774,16.45,16.45,0,0,0-2.6-.2h-6.105v10.708Z" transform="translate(-460.808 -152.666)"/><path class="e" d="M545.274,152.666l13.36,35.727h-8.156l-2.7-7.956H534.416l-2.8,7.956h-7.906l13.509-35.727Zm.451,21.916-4.5-13.11h-.1l-4.653,13.11Z" transform="translate(-464.415 -152.666)"/></g><g transform="translate(501.003 41.446)"><path class="f" d="M569.358,49.894S528.031,24.022,509.886,62.83c-8.113,17.351,3.585,36.46,19.582,48.148,12.48,9.118,32.338,23.174,54.256,29.643,0,0-68.679-42.4-55.154-74.738C531.58,58.689,542.4,42.168,569.358,49.894Z" transform="translate(-507.242 -41.446)"/><path class="g" d="M590.137,56.836s46.352-24.249,50.843,17.069c2.5,23-31.44,45.1-56.232,55.517,0,0,41.656-31.531,41.68-52.822C626.44,66.269,615.811,49.783,590.137,56.836Z" transform="translate(-516.709 -42.463)"/></g></g></svg>