<svg xmlns="http://www.w3.org/2000/svg" width="20.833" height="25" viewBox="0 0 20.833 25"><defs><style>.a{fill:#fff;}</style></defs><g transform="translate(-207 -42.276)"><path class="a" d="M344.238,462.964a3.91,3.91,0,0,1-3.906-3.906.781.781,0,0,1,1.563,0,2.344,2.344,0,0,0,4.688,0,.781.781,0,1,1,1.562,0,3.91,3.91,0,0,1-3.906,3.906Zm0,0" transform="translate(-126.822 -395.688)"/><path class="a" d="M226.01,125.026H208.823a1.823,1.823,0,0,1-1.185-3.208,6.981,6.981,0,0,0,2.488-5.346v-2.9a7.292,7.292,0,0,1,14.583,0v2.9a6.98,6.98,0,0,0,2.477,5.339,1.822,1.822,0,0,1-1.175,3.216Zm-8.594-17.188a5.735,5.735,0,0,0-5.729,5.729v2.9A8.537,8.537,0,0,1,208.656,123a.259.259,0,0,0-.094.2.263.263,0,0,0,.26.26H226.01a.263.263,0,0,0,.261-.26.257.257,0,0,0-.092-.2,8.54,8.54,0,0,1-3.033-6.533v-2.9a5.735,5.735,0,0,0-5.729-5.729Zm0,0" transform="translate(0 -60.875)"/><path class="a" d="M405.113,46.964a.781.781,0,0,1-.781-.781V43.057a.781.781,0,1,1,1.563,0v3.125a.782.782,0,0,1-.781.781Zm0,0" transform="translate(-187.697)"/></g></svg>