<svg xmlns="http://www.w3.org/2000/svg" width="27.999" height="28" viewBox="0 0 27.999 28"><defs><style>.a{fill:#fff;}</style></defs><g transform="translate(-0.001)"><path class="a" d="M.183,23.284a.872.872,0,0,0,.92.311l5.138-1.382,1.367,5.136a.873.873,0,0,0,.73.642A.667.667,0,0,0,8.454,28a.875.875,0,0,0,.758-.437L14,19.271l4.79,8.292a.874.874,0,0,0,1.6-.212l1.367-5.136L26.9,23.6a.875.875,0,0,0,.985-1.281L22.806,13.5A9.622,9.622,0,1,0,4.376,9.625,9.546,9.546,0,0,0,5.2,13.5L.119,22.313A.874.874,0,0,0,.183,23.284Zm25.13-1.927L21.369,20.3a.883.883,0,0,0-.665.087.871.871,0,0,0-.408.534l-1.048,3.939L15.9,19.063a9.632,9.632,0,0,0,5.9-3.811ZM14,1.75A7.875,7.875,0,1,1,6.126,9.625,7.885,7.885,0,0,1,14,1.75Zm-7.794,13.5a9.634,9.634,0,0,0,5.9,3.812L8.755,24.855,7.707,20.916a.881.881,0,0,0-.408-.534.892.892,0,0,0-.665-.088l-3.945,1.06Z" transform="translate(0)"/><path class="a" d="M161.83,71.36l-.182,2.721a.875.875,0,0,0,1.216.863l2.361-1,2.361,1a.874.874,0,0,0,1.216-.863l-.182-2.721,1.663-2.083a.875.875,0,0,0-.462-1.393l-2.482-.649-1.361-2.292a.907.907,0,0,0-1.5,0l-1.362,2.292-2.483.649a.874.874,0,0,0-.464,1.393Zm2.072-2.524a.878.878,0,0,0,.53-.4l.793-1.335.793,1.335a.878.878,0,0,0,.53.4l1.528.4-1.034,1.3a.87.87,0,0,0-.189.6l.11,1.64-1.395-.593a.875.875,0,0,0-.686,0l-1.393.593.109-1.64a.869.869,0,0,0-.189-.6l-1.034-1.3Z" transform="translate(-151.224 -61.014)"/></g></svg>