<svg xmlns="http://www.w3.org/2000/svg" width="25.999" height="26" viewBox="0 0 25.999 26"><defs><style>.a{fill:#fffbfb;}</style></defs><g transform="translate(-228 -106.276)"><path class="a" d="M247.037,124.163a10.865,10.865,0,1,0-1.149,1.149l6.725,6.725a.812.812,0,1,0,1.148-1.149Zm-17.412-7.054a9.208,9.208,0,1,1,9.208,9.208,9.218,9.218,0,0,1-9.208-9.208Zm0,0"/><path class="a" d="M343.25,160.776a3.25,3.25,0,1,0-3.25-3.25,3.254,3.254,0,0,0,3.25,3.25Zm0-4.875a1.625,1.625,0,1,1-1.625,1.625,1.627,1.627,0,0,1,1.625-1.625Zm0,0" transform="translate(-104.417 -44.75)"/><path class="a" d="M315.854,266.276h-4.875A2.981,2.981,0,0,0,308,269.255v1.625a.812.812,0,0,0,1.625,0v-1.625a1.356,1.356,0,0,1,1.354-1.354h4.875a1.356,1.356,0,0,1,1.354,1.354v1.625a.812.812,0,1,0,1.625,0v-1.625a2.981,2.981,0,0,0-2.979-2.979Zm0,0" transform="translate(-74.584 -149.167)"/></g></svg>