<svg xmlns="http://www.w3.org/2000/svg" width="18" height="20.76" viewBox="0 0 18 20.76"><defs><style>.a{fill:#fff;}.b{fill:#f44336;}</style></defs><g transform="translate(103 -5064)"><path class="a" d="M20.359,17.125,14.651,22.5a.95.95,0,0,1-1.3,0L7.64,17.125a8.759,8.759,0,0,1,0-12.535,9.1,9.1,0,0,1,12.719,0,8.759,8.759,0,0,1,0,12.535Z" transform="translate(-108 5062)"/><path class="b" d="M20.359,17.125,14.651,22.5a.95.95,0,0,1-1.3,0L7.64,17.125a8.759,8.759,0,0,1,0-12.535,9.1,9.1,0,0,1,12.719,0,8.759,8.759,0,0,1,0,12.535ZM19.028,5.933a7.2,7.2,0,0,0-10.057,0,6.873,6.873,0,0,0-.014,9.835L14,20.517l5.035-4.742a6.877,6.877,0,0,0-.007-9.842ZM14,14.738a3.774,3.774,0,1,1,3.789-3.774A3.782,3.782,0,0,1,14,14.738Zm0-1.887a1.887,1.887,0,1,0-1.895-1.887A1.891,1.891,0,0,0,14,12.851Z" transform="translate(-108 5062)"/></g></svg>