<svg xmlns="http://www.w3.org/2000/svg" width="26.992" height="26.992" viewBox="0 0 26.992 26.992"><defs><style>.a{fill:#fff;}</style></defs><g transform="translate(-164 -42.276)"><path class="a" d="M178.475,69.268h-1.957a1.965,1.965,0,0,1-1.96-1.7l-.289-2.2a9.787,9.787,0,0,1-1.279-.528l-1.75,1.344a1.97,1.97,0,0,1-2.6-.174l-1.382-1.383a1.972,1.972,0,0,1-.172-2.6l1.343-1.748A9.727,9.727,0,0,1,167.9,59l-2.192-.288A1.967,1.967,0,0,1,164,56.751V54.794a1.965,1.965,0,0,1,1.7-1.96l2.2-.289a9.79,9.79,0,0,1,.528-1.279l-1.344-1.75a1.973,1.973,0,0,1,.174-2.6l1.383-1.382a1.972,1.972,0,0,1,2.6-.172l1.747,1.342a9.731,9.731,0,0,1,1.279-.528l.288-2.192a1.967,1.967,0,0,1,1.962-1.712h1.957a1.965,1.965,0,0,1,1.96,1.7l.289,2.2a9.8,9.8,0,0,1,1.279.527l1.75-1.344a1.971,1.971,0,0,1,2.6.174l1.382,1.382a1.972,1.972,0,0,1,.172,2.6l-1.342,1.748a9.691,9.691,0,0,1,.528,1.279l2.192.288a1.967,1.967,0,0,1,1.712,1.962v1.957a1.965,1.965,0,0,1-1.7,1.96l-2.2.289a9.794,9.794,0,0,1-.527,1.279l1.344,1.75a1.973,1.973,0,0,1-.174,2.6l-1.382,1.382a1.975,1.975,0,0,1-2.6.172L182,64.836a9.728,9.728,0,0,1-1.279.527l-.288,2.192a1.967,1.967,0,0,1-1.962,1.713Zm-5.567-6.276a.847.847,0,0,1,.422.112,8.059,8.059,0,0,0,1.923.794.846.846,0,0,1,.617.7l.36,2.733a.286.286,0,0,0,.288.245h1.957a.286.286,0,0,0,.289-.253l.359-2.725a.842.842,0,0,1,.617-.7,8.038,8.038,0,0,0,1.923-.794.845.845,0,0,1,.936.062l2.182,1.676a.275.275,0,0,0,.373-.028l1.383-1.383a.277.277,0,0,0,.03-.372l-1.678-2.184a.843.843,0,0,1-.062-.936,8.041,8.041,0,0,0,.794-1.923.847.847,0,0,1,.7-.617l2.733-.36a.286.286,0,0,0,.245-.288V54.794a.286.286,0,0,0-.253-.289l-2.725-.359a.842.842,0,0,1-.7-.617,8.02,8.02,0,0,0-.794-1.923.847.847,0,0,1,.062-.936l1.676-2.182a.276.276,0,0,0-.028-.373l-1.383-1.383a.276.276,0,0,0-.371-.032L182.6,48.377a.848.848,0,0,1-.936.062,8.059,8.059,0,0,0-1.923-.794.846.846,0,0,1-.617-.7l-.36-2.733a.283.283,0,0,0-.288-.245h-1.957a.286.286,0,0,0-.289.253l-.359,2.725a.842.842,0,0,1-.617.7,8.038,8.038,0,0,0-1.923.794.849.849,0,0,1-.936-.062L170.212,46.7a.276.276,0,0,0-.373.028l-1.385,1.383a.277.277,0,0,0-.03.372l1.678,2.184a.845.845,0,0,1,.062.935,8.061,8.061,0,0,0-.794,1.923.846.846,0,0,1-.7.617l-2.733.36a.286.286,0,0,0-.245.289v1.957a.286.286,0,0,0,.253.289l2.725.359a.842.842,0,0,1,.7.617,8.038,8.038,0,0,0,.794,1.923.847.847,0,0,1-.062.936l-1.676,2.182a.276.276,0,0,0,.028.373l1.383,1.383a.277.277,0,0,0,.372.03l2.184-1.678a.848.848,0,0,1,.514-.173Zm0,0"/><path class="a" d="M318.955,202.855a5.623,5.623,0,1,1,5.623-5.623,5.63,5.63,0,0,1-5.623,5.623Zm0-9.56a3.936,3.936,0,1,0,3.936,3.936,3.941,3.941,0,0,0-3.936-3.936Zm0,0" transform="translate(-141.459 -141.459)"/></g></svg>