<svg xmlns="http://www.w3.org/2000/svg" width="23.127" height="16.652" viewBox="0 0 23.127 16.652">
  <g id="hide" transform="translate(-634.937 -379.674)">
    <path id="unhide" d="M12,4.5A11.827,11.827,0,0,0,1,12a11.817,11.817,0,0,0,22,0A11.827,11.827,0,0,0,12,4.5ZM12,17a5,5,0,1,1,5-5A5,5,0,0,1,12,17Zm0-8a3,3,0,1,0,3,3A3,3,0,0,0,12,9Z" transform="translate(634 376)" fill="#d4c8c8"/>
    <line id="Line_1" data-name="Line 1" y1="15" x2="22" transform="translate(635.5 380.5)" fill="none" stroke="#d4c8c8" stroke-width="2"/>
  </g>
</svg>
