<svg xmlns="http://www.w3.org/2000/svg" width="50" height="50" viewBox="0 0 50 50"><defs><style>.a{fill:#ff5700;}.b{fill:#eceff1;}.c{fill:#fafafa;}</style></defs><g transform="translate(-50 -140)"><path class="a" d="M75,140a25,25,0,1,0,25,25,25.028,25.028,0,0,0-25-25Zm0,0"/><path class="b" d="M288.834,504.751a2.083,2.083,0,1,1-2.083-2.083,2.083,2.083,0,0,1,2.083,2.083Zm0,0" transform="translate(-211.751 -327.251)"/><path class="c" d="M288.834,265.418a2.083,2.083,0,0,1-4.166,0V248.751a2.083,2.083,0,0,1,4.166,0Zm0,0" transform="translate(-211.751 -96.251)"/></g></svg>