<svg xmlns="http://www.w3.org/2000/svg" width="50" height="50" viewBox="0 0 50 50"><defs><style>.a{fill:#f44336;}.b{fill:#fafafa;}</style></defs><g transform="translate(16 -200)"><g transform="translate(-16 200)"><path class="a" d="M75,140a25,25,0,1,0,25,25,25.028,25.028,0,0,0-25-25Zm0,0" transform="translate(-50 -140)"/><path class="b" d="M224.5,311.549a2.083,2.083,0,1,1-2.946,2.946l-6.26-6.261-6.26,6.261a2.083,2.083,0,0,1-2.946-2.946l6.261-6.26-6.261-6.26a2.083,2.083,0,0,1,2.946-2.946l6.26,6.261,6.26-6.261a2.083,2.083,0,1,1,2.946,2.946l-6.261,6.26Zm0,0" transform="translate(-190.289 -280.289)"/></g></g></svg>